<?xml version="1.0" encoding="UTF-8"?>
<svg width="700pt" height="700pt" version="1.1" viewBox="0 0 700 700" xmlns="http://www.w3.org/2000/svg" xmlns:xlink="http://www.w3.org/1999/xlink">
 <defs>
  <symbol id="v" overflow="visible">
   <path d="m3.8438-0.23438c-0.19922 0.10547-0.40625 0.18359-0.625 0.23438-0.21094 0.050781-0.43359 0.078125-0.67188 0.078125-0.69922 0-1.25-0.19141-1.6562-0.57812-0.40625-0.39453-0.60938-0.92578-0.60938-1.5938 0-0.66406 0.20312-1.1914 0.60938-1.5781 0.40625-0.38281 0.95703-0.57812 1.6562-0.57812 0.23828 0 0.46094 0.027344 0.67188 0.078125 0.21875 0.054687 0.42578 0.13281 0.625 0.23438v0.85938c-0.19922-0.13281-0.39844-0.23438-0.59375-0.29688-0.19922-0.0625-0.40234-0.09375-0.60938-0.09375-0.38672 0-0.6875 0.125-0.90625 0.375-0.21875 0.24219-0.32812 0.57422-0.32812 1 0 0.4375 0.10938 0.78125 0.32812 1.0312 0.21875 0.24219 0.51953 0.35938 0.90625 0.35938 0.20703 0 0.41016-0.03125 0.60938-0.09375 0.19531-0.0625 0.39453-0.16016 0.59375-0.29688z"/>
  </symbol>
  <symbol id="d" overflow="visible">
   <path d="m2.8125-2.2812c-0.09375-0.039062-0.18359-0.070312-0.26562-0.09375-0.085937-0.019531-0.17188-0.03125-0.26562-0.03125-0.25 0-0.44922 0.085938-0.59375 0.25-0.13672 0.16797-0.20312 0.40625-0.20312 0.71875v1.4375h-1v-3.1406h1v0.51562c0.125-0.19531 0.26953-0.34375 0.4375-0.4375 0.16406-0.10156 0.36719-0.15625 0.60938-0.15625 0.03125 0 0.066406 0.007812 0.10938 0.015625 0.039063 0 0.097656 0.007813 0.17188 0.015625z"/>
  </symbol>
  <symbol id="b" overflow="visible">
   <path d="m3.6094-1.5781v0.28125h-2.3438c0.03125 0.24219 0.11328 0.42188 0.25 0.54688 0.14453 0.11719 0.35156 0.17188 0.625 0.17188 0.20703 0 0.42188-0.03125 0.64062-0.09375s0.44531-0.16016 0.6875-0.29688v0.78125c-0.24219 0.085938-0.48047 0.14844-0.71875 0.1875-0.24219 0.050781-0.47656 0.078125-0.70312 0.078125-0.57422 0-1.0156-0.14062-1.3281-0.42188-0.3125-0.28906-0.46875-0.69531-0.46875-1.2188 0-0.50781 0.14844-0.91016 0.45312-1.2031 0.3125-0.30078 0.73828-0.45312 1.2812-0.45312 0.48828 0 0.87891 0.15234 1.1719 0.45312 0.30078 0.29297 0.45312 0.6875 0.45312 1.1875zm-1.0312-0.32812c0-0.1875-0.058594-0.33594-0.17188-0.45312-0.10547-0.125-0.24609-0.1875-0.42188-0.1875-0.19922 0-0.35938 0.058594-0.48438 0.17188-0.11719 0.10547-0.1875 0.26172-0.21875 0.46875z"/>
  </symbol>
  <symbol id="l" overflow="visible">
   <path d="m1.8906-1.4062c-0.21094 0-0.37109 0.039062-0.48438 0.10938-0.10547 0.0625-0.15625 0.16797-0.15625 0.3125 0 0.125 0.039062 0.22656 0.125 0.29688 0.09375 0.074219 0.21094 0.10938 0.35938 0.10938 0.1875 0 0.34375-0.066406 0.46875-0.20312 0.13281-0.13281 0.20312-0.30469 0.20312-0.51562v-0.10938zm1.5312-0.39062v1.7969h-1.0156v-0.46875c-0.13672 0.19922-0.28906 0.33984-0.45312 0.42188-0.16797 0.082031-0.37109 0.125-0.60938 0.125-0.32422 0-0.58984-0.09375-0.79688-0.28125-0.19922-0.1875-0.29688-0.42969-0.29688-0.73438 0-0.375 0.125-0.64453 0.375-0.8125 0.25-0.16406 0.64453-0.25 1.1875-0.25h0.59375v-0.09375c0-0.15625-0.0625-0.26953-0.1875-0.34375-0.125-0.070312-0.32031-0.10938-0.57812-0.10938-0.21875 0-0.42188 0.023437-0.60938 0.0625-0.17969 0.042969-0.35156 0.10938-0.51562 0.20312v-0.76562c0.21875-0.050781 0.4375-0.09375 0.65625-0.125s0.42969-0.046875 0.64062-0.046875c0.57031 0 0.98438 0.11719 1.2344 0.34375 0.25 0.21875 0.375 0.57812 0.375 1.0781z"/>
  </symbol>
  <symbol id="a" overflow="visible">
   <path d="m1.5781-4.0312v0.89062h1.0312v0.71875h-1.0312v1.3281c0 0.14844 0.023437 0.24609 0.078125 0.29688 0.0625 0.054687 0.17578 0.078125 0.34375 0.078125h0.51562v0.71875h-0.85938c-0.39844 0-0.67969-0.082031-0.84375-0.25-0.15625-0.16406-0.23438-0.44531-0.23438-0.84375v-1.3281h-0.5v-0.71875h0.5v-0.89062z"/>
  </symbol>
  <symbol id="f" overflow="visible">
   <path d="m2.6094-2.6719v-1.6875h1.0156v4.3594h-1.0156v-0.45312c-0.13672 0.1875-0.28906 0.32422-0.45312 0.40625-0.16797 0.082031-0.35938 0.125-0.57812 0.125-0.38672 0-0.70312-0.14844-0.95312-0.45312-0.25-0.3125-0.375-0.70703-0.375-1.1875 0-0.48828 0.125-0.88281 0.375-1.1875 0.25-0.3125 0.56641-0.46875 0.95312-0.46875 0.21875 0 0.41016 0.046875 0.57812 0.14062 0.16406 0.085937 0.31641 0.21875 0.45312 0.40625zm-0.65625 2.0312c0.21875 0 0.37891-0.078125 0.48438-0.23438 0.11328-0.16406 0.17188-0.39453 0.17188-0.6875 0-0.30078-0.058594-0.53125-0.17188-0.6875-0.10547-0.15625-0.26562-0.23438-0.48438-0.23438-0.21094 0-0.37109 0.078125-0.48438 0.23438-0.11719 0.15625-0.17188 0.38672-0.17188 0.6875 0 0.29297 0.054687 0.52344 0.17188 0.6875 0.11328 0.15625 0.27344 0.23438 0.48438 0.23438z"/>
  </symbol>
  <symbol id="k" overflow="visible">
   <path d="m2.1562-0.64062c0.20703 0 0.36719-0.078125 0.48438-0.23438 0.11328-0.16406 0.17188-0.39453 0.17188-0.6875 0-0.30078-0.058594-0.53125-0.17188-0.6875-0.11719-0.15625-0.27734-0.23438-0.48438-0.23438-0.21875 0-0.38672 0.078125-0.5 0.23438-0.11719 0.15625-0.17188 0.38672-0.17188 0.6875 0 0.29297 0.054687 0.52344 0.17188 0.6875 0.11328 0.15625 0.28125 0.23438 0.5 0.23438zm-0.67188-2.0312c0.13281-0.1875 0.28516-0.32031 0.45312-0.40625 0.16406-0.09375 0.35938-0.14062 0.57812-0.14062 0.39453 0 0.71094 0.15625 0.95312 0.46875 0.25 0.30469 0.375 0.69922 0.375 1.1875 0 0.48047-0.125 0.875-0.375 1.1875-0.24219 0.30469-0.55859 0.45312-0.95312 0.45312-0.21875 0-0.41406-0.042969-0.57812-0.125-0.16797-0.082031-0.32031-0.21875-0.45312-0.40625v0.45312h-1v-4.3594h1z"/>
  </symbol>
  <symbol id="e" overflow="visible">
   <path d="m0.0625-3.1406h1.0156l0.84375 2.125 0.70312-2.125h1.0156l-1.3281 3.4375c-0.13672 0.35156-0.29297 0.59766-0.46875 0.73438-0.16797 0.13281-0.39844 0.20312-0.6875 0.20312h-0.57812v-0.65625h0.3125c0.16406 0 0.28516-0.027344 0.35938-0.078125 0.082031-0.054688 0.14453-0.15234 0.1875-0.29688l0.03125-0.078125z"/>
  </symbol>
  <symbol id="j" overflow="visible">
   <path d="m3.0625-0.76562h-1.6875l-0.26562 0.76562h-1.0781l1.5469-4.1875h1.2812l1.5469 4.1875h-1.0781zm-1.4219-0.76562h1.1562l-0.57812-1.6719z"/>
  </symbol>
  <symbol id="i" overflow="visible">
   <path d="m3.3906-2.6094c0.125-0.19531 0.27344-0.34766 0.45312-0.45312 0.17578-0.10156 0.36719-0.15625 0.57812-0.15625 0.35156 0 0.625 0.11719 0.8125 0.34375 0.1875 0.21875 0.28125 0.54297 0.28125 0.96875v1.9062h-1v-1.6406-0.0625-0.125c0-0.21875-0.03125-0.375-0.09375-0.46875-0.0625-0.10156-0.16797-0.15625-0.3125-0.15625-0.19922 0-0.35156 0.078125-0.45312 0.23438-0.09375 0.15625-0.14844 0.38281-0.15625 0.67188v1.5469h-1v-1.6406c0-0.34375-0.03125-0.5625-0.09375-0.65625-0.0625-0.10156-0.16797-0.15625-0.3125-0.15625-0.19922 0-0.35156 0.078125-0.45312 0.23438-0.10547 0.15625-0.15625 0.38281-0.15625 0.67188v1.5469h-1.0156v-3.1406h1.0156v0.46875c0.125-0.17578 0.26562-0.3125 0.42188-0.40625s0.33203-0.14062 0.53125-0.14062c0.21875 0 0.41016 0.058594 0.57812 0.17188 0.16406 0.10547 0.28906 0.25 0.375 0.4375z"/>
  </symbol>
  <symbol id="h" overflow="visible">
   <path d="m3.6406-1.9062v1.9062h-1.0156v-1.4531c0-0.28125-0.007812-0.46875-0.015625-0.5625-0.011719-0.10156-0.03125-0.17969-0.0625-0.23438-0.042969-0.0625-0.10156-0.10938-0.17188-0.14062-0.0625-0.039063-0.13672-0.0625-0.21875-0.0625-0.21094 0-0.375 0.085937-0.5 0.25-0.11719 0.15625-0.17188 0.375-0.17188 0.65625v1.5469h-1v-4.3594h1v1.6875c0.14453-0.1875 0.30078-0.32031 0.46875-0.40625 0.17578-0.09375 0.36719-0.14062 0.57812-0.14062 0.36328 0 0.64062 0.11719 0.82812 0.34375 0.1875 0.21875 0.28125 0.54297 0.28125 0.96875z"/>
  </symbol>
  <symbol id="u" overflow="visible">
   <path d="m2.9375-3.0312v0.75c-0.21875-0.082031-0.42969-0.14453-0.625-0.1875-0.19922-0.050781-0.38672-0.078125-0.5625-0.078125-0.19922 0-0.34375 0.027344-0.4375 0.078125-0.085938 0.042969-0.125 0.11719-0.125 0.21875 0 0.074219 0.03125 0.13672 0.09375 0.1875 0.070312 0.042969 0.19531 0.074219 0.375 0.09375l0.1875 0.015625c0.50781 0.074219 0.85156 0.18359 1.0312 0.32812 0.17578 0.14844 0.26562 0.38281 0.26562 0.70312 0 0.33594-0.125 0.58594-0.375 0.75-0.24219 0.16797-0.60547 0.25-1.0938 0.25-0.21094 0-0.42969-0.015625-0.65625-0.046875-0.21875-0.03125-0.44531-0.078125-0.67188-0.14062v-0.76562c0.19531 0.09375 0.39844 0.16797 0.60938 0.21875 0.21875 0.054688 0.42969 0.078125 0.64062 0.078125 0.19531 0 0.34375-0.023437 0.4375-0.078125 0.10156-0.0625 0.15625-0.14453 0.15625-0.25 0-0.09375-0.039062-0.16016-0.10938-0.20312-0.0625-0.039063-0.19531-0.070313-0.39062-0.09375l-0.1875-0.03125c-0.44922-0.050781-0.76172-0.14844-0.9375-0.29688-0.17969-0.15625-0.26562-0.39062-0.26562-0.70312 0-0.33203 0.11328-0.57812 0.34375-0.73438 0.22656-0.16406 0.57812-0.25 1.0469-0.25 0.1875 0 0.37891 0.015625 0.57812 0.046875 0.20703 0.03125 0.42969 0.078125 0.67188 0.14062z"/>
  </symbol>
  <symbol id="t" overflow="visible">
   <path d="m3.4375-4.0469v0.89062c-0.23047-0.10156-0.45312-0.17969-0.67188-0.23438-0.21875-0.050781-0.42969-0.078125-0.625-0.078125-0.25 0-0.4375 0.039062-0.5625 0.10938-0.125 0.0625-0.1875 0.17188-0.1875 0.32812 0 0.10547 0.039063 0.1875 0.125 0.25 0.082031 0.0625 0.23438 0.12109 0.45312 0.17188l0.45312 0.09375c0.46875 0.09375 0.79688 0.23438 0.98438 0.42188 0.19531 0.1875 0.29688 0.46094 0.29688 0.8125 0 0.46094-0.13672 0.80469-0.40625 1.0312-0.27344 0.21875-0.6875 0.32812-1.25 0.32812-0.26172 0-0.52734-0.027344-0.79688-0.078125-0.27344-0.039062-0.53906-0.11328-0.79688-0.21875v-0.90625c0.25781 0.13672 0.51562 0.24219 0.76562 0.3125 0.25 0.074219 0.48828 0.10938 0.71875 0.10938 0.23828 0 0.42188-0.035156 0.54688-0.10938 0.125-0.082031 0.1875-0.19531 0.1875-0.34375 0-0.125-0.042969-0.22266-0.125-0.29688-0.085937-0.070313-0.25781-0.13281-0.51562-0.1875l-0.40625-0.09375c-0.42969-0.09375-0.74219-0.23828-0.9375-0.4375-0.1875-0.19531-0.28125-0.45703-0.28125-0.78125 0-0.41406 0.13281-0.73438 0.40625-0.95312 0.26953-0.22656 0.65625-0.34375 1.1562-0.34375 0.22656 0 0.46094 0.015625 0.70312 0.046875 0.25 0.03125 0.50391 0.085937 0.76562 0.15625z"/>
  </symbol>
  <symbol id="g" overflow="visible">
   <path d="m0.45312-1.2188v-1.9219h1v0.3125 0.65625 0.5c0 0.25 0.003906 0.43359 0.015625 0.54688 0.007812 0.11719 0.03125 0.19922 0.0625 0.25 0.039062 0.0625 0.09375 0.11719 0.15625 0.15625 0.070312 0.03125 0.14844 0.046875 0.23438 0.046875 0.20703 0 0.36719-0.078125 0.48438-0.23438 0.125-0.16406 0.1875-0.39453 0.1875-0.6875v-1.5469h1v3.1406h-1v-0.45312c-0.14844 0.1875-0.30859 0.32422-0.48438 0.40625-0.16797 0.082031-0.35156 0.125-0.54688 0.125-0.36719 0-0.64062-0.10938-0.82812-0.32812s-0.28125-0.53906-0.28125-0.96875z"/>
  </symbol>
  <symbol id="s" overflow="visible">
   <path d="m0.48438-3.1406h1v3.1406h-1zm0-1.2188h1v0.8125h-1z"/>
  </symbol>
  <symbol id="c" overflow="visible">
   <path d="m1.9688-2.5c-0.21875 0-0.38672 0.085938-0.5 0.25-0.11719 0.15625-0.17188 0.38672-0.17188 0.6875 0 0.30469 0.054687 0.53125 0.17188 0.6875 0.11328 0.15625 0.28125 0.23438 0.5 0.23438s0.38281-0.078125 0.5-0.23438c0.125-0.15625 0.1875-0.38281 0.1875-0.6875 0-0.30078-0.0625-0.53125-0.1875-0.6875-0.11719-0.16406-0.28125-0.25-0.5-0.25zm0-0.71875c0.53906 0 0.96094 0.14844 1.2656 0.4375 0.30078 0.29297 0.45312 0.69922 0.45312 1.2188 0 0.51172-0.15234 0.91406-0.45312 1.2031-0.30469 0.29297-0.72656 0.4375-1.2656 0.4375-0.54297 0-0.96484-0.14453-1.2656-0.4375-0.30469-0.28906-0.45312-0.69141-0.45312-1.2031 0-0.51953 0.14844-0.92578 0.45312-1.2188 0.30078-0.28906 0.72266-0.4375 1.2656-0.4375z"/>
  </symbol>
  <symbol id="r" overflow="visible">
   <path d="m2.5469-4.3594v0.65625h-0.5625c-0.13672 0-0.23438 0.027344-0.29688 0.078125-0.054688 0.054688-0.078125 0.14062-0.078125 0.26562v0.21875h0.85938v0.71875h-0.85938v2.4219h-1v-2.4219h-0.5v-0.71875h0.5v-0.21875c0-0.33203 0.09375-0.58203 0.28125-0.75 0.1875-0.16406 0.48438-0.25 0.89062-0.25z"/>
  </symbol>
  <symbol id="q" overflow="visible">
   <path d="m0.53125-4.1875h1.2031l1.5156 2.875v-2.875h1.0156v4.1875h-1.2031l-1.5156-2.875v2.875h-1.0156z"/>
  </symbol>
  <symbol id="p" overflow="visible">
   <path d="m3.6406-1.9062v1.9062h-1.0156v-1.4688c0-0.26953-0.007812-0.45312-0.015625-0.54688-0.011719-0.10156-0.03125-0.17969-0.0625-0.23438-0.042969-0.0625-0.10156-0.10938-0.17188-0.14062-0.0625-0.039063-0.13672-0.0625-0.21875-0.0625-0.21094 0-0.375 0.085937-0.5 0.25-0.11719 0.15625-0.17188 0.375-0.17188 0.65625v1.5469h-1v-3.1406h1v0.46875c0.14453-0.1875 0.30078-0.32031 0.46875-0.40625 0.17578-0.09375 0.36719-0.14062 0.57812-0.14062 0.36328 0 0.64062 0.11719 0.82812 0.34375 0.1875 0.21875 0.28125 0.54297 0.28125 0.96875z"/>
  </symbol>
  <symbol id="o" overflow="visible">
   <path d="m0.53125-4.1875h1.7812c0.53125 0 0.9375 0.12109 1.2188 0.35938 0.28906 0.24219 0.4375 0.57812 0.4375 1.0156s-0.14844 0.77734-0.4375 1.0156c-0.28125 0.23047-0.6875 0.34375-1.2188 0.34375h-0.70312v1.4531h-1.0781zm1.0781 0.78125v1.1719h0.59375c0.20703 0 0.36719-0.046875 0.48438-0.14062 0.11328-0.10156 0.17188-0.25 0.17188-0.4375s-0.058594-0.33203-0.17188-0.4375c-0.11719-0.10156-0.27734-0.15625-0.48438-0.15625z"/>
  </symbol>
  <symbol id="n" overflow="visible">
   <path d="m0.48438-3.1406h1v3.0781c0 0.42578-0.10547 0.75-0.3125 0.96875-0.19922 0.21875-0.48438 0.32812-0.85938 0.32812h-0.5v-0.65625h0.17188c0.1875 0 0.31641-0.042969 0.39062-0.125 0.070312-0.085937 0.10938-0.25781 0.10938-0.51562zm0-1.2188h1v0.8125h-1z"/>
  </symbol>
  <symbol id="m" overflow="visible">
   <path d="m3.0156-3.0312v0.8125c-0.13672-0.09375-0.27344-0.16016-0.40625-0.20312-0.13672-0.050781-0.28125-0.078125-0.4375-0.078125-0.27344 0-0.48438 0.085938-0.64062 0.25-0.15625 0.16797-0.23438 0.39844-0.23438 0.6875 0 0.29297 0.078125 0.52344 0.23438 0.6875 0.15625 0.15625 0.36719 0.23438 0.64062 0.23438 0.15625 0 0.30469-0.019531 0.45312-0.0625 0.14453-0.050781 0.27344-0.11719 0.39062-0.20312v0.8125c-0.15625 0.0625-0.32031 0.10156-0.48438 0.125-0.15625 0.03125-0.32031 0.046875-0.48438 0.046875-0.5625 0-1.0078-0.14453-1.3281-0.4375-0.3125-0.28906-0.46875-0.69141-0.46875-1.2031 0-0.51953 0.15625-0.92578 0.46875-1.2188 0.32031-0.28906 0.76562-0.4375 1.3281-0.4375 0.16406 0 0.32812 0.015625 0.48438 0.046875 0.16406 0.03125 0.32812 0.078125 0.48438 0.14062z"/>
  </symbol>
 </defs>
 <g>
  <path d="m138.38 378.04v42.672c0 17.215 1.7031 35.227 14.059 50.328 8.4883 10.375 23.008 20.508 30.906 25.621 4.7617 3.0859 7.6094 8.3125 7.6094 13.98v9.7188c0 6.4648-3.8125 12.406-9.7148 15.137-4.3398 2.0078-14.43 7.3867-14.43 13.918 0 7.1172 11.422 10.574 34.918 10.574 23.496 0 34.918-3.4609 34.918-10.574 0-6.5312-10.09-11.906-14.43-13.918-5.9023-2.7344-9.7148-8.6758-9.7148-15.137v-9.7188c0-5.6719 2.8438-10.898 7.6094-13.98 7.8984-5.1172 22.418-15.246 30.906-25.625 12.355-15.102 14.059-33.113 14.059-50.328v-42.672c-13.281 7.2891-38.953 10.707-63.344 10.707-24.395 0.003906-50.066-3.4141-63.352-10.703z"/>
  <path d="m460.92 330.39c17.547-19.324 25.398-87.648 25.398-146.79 0-9.1797-0.1875-18.582-0.57422-27.984-12.02-3.5859-59.578-16.445-123.36-16.445-63.871 0-111.36 12.855-123.36 16.445-0.38672 9.4062-0.57422 18.809-0.57422 27.988 0 59.141 7.8555 127.46 25.398 146.79 16.652 18.34 49.805 27.637 98.535 27.637 48.73-0.003906 81.883-9.3008 98.535-27.641zm-16.891-130.19c-3.2148 4.1094-7.7734 6.8828-13.363 8.2383-1.8438 6.8398-8.0742 11.879-15.496 11.879-8.8711 0-16.066-7.1914-16.066-16.066 0-8.8711 7.1914-16.066 16.066-16.066 2.2773 0 4.4375 0.48047 6.3984 1.332 0.22656-0.72266 0.42188-1.4648 0.57813-2.2383 0.5-2.4844 2.9219-4.0938 5.4062-3.5938 2.4844 0.5 4.0938 2.9219 3.5938 5.4062-0.49609 2.4531-1.2461 4.7344-2.2422 6.8516 0.58203 0.96094 1.0664 1.9844 1.4414 3.0625 2.4922-0.875 4.7461-2.2852 6.4531-4.4688 1.5625-1.9961 4.4453-2.3477 6.4453-0.78906 1.9961 1.5703 2.3477 4.457 0.78516 6.4531zm-52.898-28.883c0.39844-0.43359 9.9922-10.668 28.629-10.668s28.23 10.234 28.629 10.668c1.7148 1.8672 1.5859 4.7734-0.28125 6.4844-0.88281 0.80859-1.9922 1.207-3.1016 1.207-1.2344 0-2.4609-0.49219-3.3633-1.4648-0.34375-0.36328-7.5234-7.7148-21.883-7.7148-14.41 0-21.59 7.4023-21.887 7.7188-1.7344 1.8281-4.6289 1.9336-6.4766 0.21484-1.8398-1.7188-1.9688-4.5898-0.26563-6.4453zm-114.75 0c0.39844-0.43359 9.9922-10.668 28.629-10.668 18.637 0 28.23 10.234 28.629 10.668 1.7148 1.8672 1.5859 4.7734-0.28125 6.4844-0.88281 0.80859-1.9922 1.207-3.1016 1.207-1.2422 0-2.4805-0.5-3.3828-1.4883-0.27344-0.28906-7.4531-7.6914-21.863-7.6914-14.41 0-21.59 7.4023-21.887 7.7188-1.7344 1.832-4.6328 1.9336-6.4727 0.21484-1.8438-1.7188-1.9727-4.5859-0.26953-6.4453zm33.223 49.004c-7.4219 0-13.652-5.0391-15.496-11.879-5.5898-1.3594-10.148-4.1328-13.363-8.2383-1.5625-1.9961-1.2109-4.8828 0.78906-6.4453 1.9961-1.5625 4.8789-1.2109 6.4453 0.78906 1.707 2.1836 3.9609 3.5938 6.4531 4.4688 0.37109-1.0781 0.85547-2.1016 1.4414-3.0625-0.99219-2.1172-1.7461-4.3984-2.2422-6.8516-0.5-2.4844 1.1055-4.9062 3.5938-5.4062 2.4805-0.49609 4.9062 1.1055 5.4062 3.5938 0.15625 0.77734 0.35156 1.5195 0.57812 2.2383 1.9609-0.85156 4.125-1.332 6.3984-1.332 8.8711 0 16.066 7.1914 16.066 16.066-0.003906 8.8672-7.1992 16.059-16.07 16.059zm17.406 42.656c1.793-1.793 4.6992-1.793 6.4922 0 0.042969 0.039063 8.4648 7.8359 28.883 7.8359 20.422 0 28.844-7.7969 28.926-7.875 1.8203-1.7344 4.7148-1.6992 6.4727 0.097657 1.7539 1.7969 1.7578 4.6562-0.019531 6.4336-0.42969 0.42969-10.809 10.523-35.379 10.523-24.57 0-34.945-10.094-35.379-10.523-1.7891-1.793-1.7891-4.6992 0.003906-6.4922z"/>
  <path d="m288.89 413.83-14.652 9.3984c-0.0625 6.3477-0.39844 12.781-1.3828 19.18 3.793-0.75391 7.5859-2.043 11.191-3.8477 8.1797-4.0898 14.637-10.285 18.184-17.449 3.3359-6.7344 3.6445-13.496 0.875-19.039-4.4258-8.8594-16-12.98-28.855-10.609v20.848l9.6797-6.2109c2.1367-1.3672 4.9727-0.74609 6.3438 1.3867 1.3711 2.1367 0.75 4.9766-1.3828 6.3438z"/>
  <path d="m248.61 358.26c-12.461-3.2617-29.109-5.0586-46.875-5.0586s-34.414 1.7969-46.875 5.0586c-13.539 3.543-16.469 7.3711-16.469 8.1289 0 0.75781 2.9297 4.5859 16.469 8.1289 12.461 3.2617 29.109 5.0586 46.875 5.0586s34.414-1.7969 46.875-5.0586c13.539-3.543 16.469-7.3711 16.469-8.1289 0-0.75781-2.9297-4.5859-16.469-8.1289z"/>
  <path d="m225.1 504.37c-2.1406 1.3867-3.418 3.7305-3.418 6.2773v9.7188c0 2.8984 1.7227 5.5703 4.3906 6.8086 12.922 5.9844 19.75 13.676 19.75 22.246 0 4.457-1.582 7.9023-4.1719 10.574h15.16v-81.609c-9.3633 10.773-23.742 20.824-31.711 25.984z"/>
  <path d="m485.28 145.9c-1.043-18.773-2.8828-37.258-5.5703-53.719-18.336-4.9844-61.328-14.719-117.32-14.719-55.992 0-98.984 9.7344-117.32 14.719-2.6875 16.457-4.5273 34.945-5.5703 53.719 16.195-4.6406 61.777-15.902 122.89-15.902s106.7 11.258 122.89 15.902z"/>
  <path d="m114.57 413.83c-2.1328-1.3672-2.7539-4.207-1.3867-6.3438 1.3711-2.1328 4.207-2.7539 6.3438-1.3867l9.6797 6.2109v-20.852c-12.855-2.3711-24.426 1.75-28.855 10.609-2.7695 5.543-2.4609 12.305 0.875 19.039 3.5469 7.1641 10.004 13.363 18.184 17.449 3.6055 1.8008 7.3945 3.0938 11.191 3.8477-0.98438-6.3945-1.3164-12.832-1.3828-19.18z"/>
  <path d="m306.61 34.477c1.793-1.793 4.6992-1.793 6.4922 0 1.793 1.793 1.793 4.6992 0 6.4922-7.8594 7.8594-11.984 17.875-12.816 31.23 9.2852-1.1758 19.344-2.1836 30.09-2.8789 0.67969-13.434 4.5195-25.234 11.23-34.324 1.5039-2.0391 4.3789-2.4727 6.418-0.96484 2.0391 1.5078 2.4727 4.3789 0.96484 6.418-5.4766 7.418-8.6914 17.148-9.4023 28.363 7.332-0.33984 14.938-0.53125 22.801-0.53125s15.465 0.19141 22.801 0.53125c-0.71094-11.211-3.9258-20.945-9.4023-28.363-1.5078-2.0391-1.0742-4.9141 0.96484-6.418 2.0391-1.5078 4.9141-1.0742 6.418 0.96484 6.7148 9.0898 10.555 20.891 11.23 34.324 10.746 0.69531 20.805 1.7031 30.09 2.8789-0.83594-13.355-4.9609-23.375-12.816-31.23-1.793-1.793-1.793-4.6992 0-6.4922 1.793-1.793 4.6992-1.793 6.4922 0 9.9141 9.9141 14.906 22.379 15.586 38.988 19.004 2.7852 34.105 6.1602 44.176 8.7461-4.0781-20.82-9.6992-37.352-17-45.395-16.66-18.336-49.812-27.637-98.543-27.637s-81.883 9.2969-98.535 27.637c-7.3008 8.043-12.922 24.574-17 45.395 10.07-2.5859 25.172-5.9648 44.176-8.7461 0.67969-16.609 5.6719-29.078 15.586-38.988z"/>
  <path d="m224.68 247.87c2.8984 0 5.4219-1.8242 7.2812-3.7578-2.4375-27.215-2.6914-51.648-2.6914-60.504 0-3.4922 0.039063-9.4062 0.23828-16.957-1.5469-0.88281-3.2773-1.4023-4.8281-1.4023-8.6836 0-18.359 16.965-18.359 41.312 0 24.344 9.6758 41.309 18.359 41.309z"/>
  <path d="m196.14 299.83c5.9688 5.0859 13.41 7.2148 20.945 6.0039 14.34-2.3086 19.203-17.508 20.223-21.41-0.94531-5.0586-1.7812-10.234-2.5195-15.449-4.0039 8.0469-10.387 15.695-20.52 18.129-12 2.8867-21.375 0.58203-27.664-2.3477 1.6797 5.9219 4.957 11.172 9.5352 15.074z"/>
  <path d="m395.8 497.12 46.371-70.691c-9.0078-3.2617-17.738-6.9141-25.227-11.195l-37.996 69.625c6.5664 2.6875 12.332 6.9258 16.852 12.262z"/>
  <path d="m491.7 443.91c-4.3477-2.7109-13.605-5.75-23.734-8.9688v125.05h50.492v-67.84c0-20.941-9.0039-37.176-26.758-48.246z"/>
  <path d="m401.34 505.41c3.0898 5.9961 4.8438 12.785 4.8438 19.98 0 14.066-6.6719 26.598-17.012 34.613h69.609v-127.97c-2.5352-0.8125-5.1016-1.6484-7.668-2.5039z"/>
  <path d="m397 525.39c0 19.117-15.496 34.613-34.613 34.613-19.117 0-34.613-15.496-34.613-34.613 0-19.117 15.496-34.617 34.613-34.617 19.117 0 34.613 15.5 34.613 34.617"/>
  <path d="m318.59 525.39c0-7.1953 1.7539-13.984 4.8438-19.98l-37.711-57.492c-4.8203 2.1211-9.8789 3.5039-14.898 4.1016-1.1797 4.2969-2.75 8.543-4.832 12.699l-0.003906 95.285h69.609c-10.336-8.0195-17.008-20.547-17.008-34.613z"/>
  <path d="m345.82 484.85-34.105-62.504c-0.37891 0.94922-0.78906 1.8945-1.2578 2.8359-3.5508 7.1719-9.3555 13.52-16.645 18.324l35.16 53.605c4.5195-5.332 10.285-9.5703 16.848-12.262z"/>
  <path d="m500.09 247.87c8.6836 0 18.359-16.965 18.359-41.312 0-24.344-9.6758-41.312-18.359-41.312-1.5508 0-3.2773 0.51953-4.8281 1.4023 0.19531 7.5508 0.23828 13.465 0.23828 16.957 0 8.8516-0.25391 33.285-2.6914 60.504 1.8633 1.9375 4.3828 3.7617 7.2812 3.7617z"/>
  <path d="m558.76 331.08c-6.7695-20.668-2.8828-70.535 1.2266-123.33 3.8359-49.246 7.8008-100.17 3.3828-129.61-8.1094-54.043-30.457-78.141-72.457-78.141-26.449 0-37.914 10.34-42.227 16.047 6.8242 3.6836 12.652 8.0078 17.504 12.98 9.6445-0.41797 43.449-0.36719 60.32 19.289 18.965 22.098 15.992 100.72 15.855 104.06-0.10156 2.4688-2.1328 4.4023-4.582 4.4023-0.0625 0-0.125 0-0.19141-0.003906-2.5312-0.10156-4.5039-2.2383-4.3984-4.7734 0.88281-21.727 0.14844-81.629-13.648-97.707-11.551-13.453-34.27-15.867-46.43-16.141 15.758 26.918 20.461 83.543 21.836 118.71 1.7109-0.51562 3.457-0.80078 5.1445-0.80078 15.445 0 27.539 22.18 27.539 50.492s-12.098 50.492-27.539 50.492c-2.8828 0-5.6914-0.75781-8.3438-2.2266-1.1172 10.215-2.5703 20.574-4.4453 30.453-0.22266 6.0469-0.95703 54.699 31.266 80.727 23.863 19.273 62.043 13.305 82.953 7.9336-14.363-5.4336-34.422-17.379-42.766-42.855z"/>
  <path d="m480.21 313.05c-3.3711 9.793-7.4805 17.992-12.496 23.516-2.7461 3.0234-5.8398 5.8164-9.2695 8.3828 0.41406 6.125 3.3203 23.676 22.629 33.992 13.84 7.3945 34.047 6.293 48.871 3.9805-6.0859-2.3398-11.883-5.5195-17.148-9.7734-20.742-16.754-29.203-41.082-32.586-60.098z"/>
  <path d="m362.39 367.21c-11.578 0-22.277-0.49609-32.133-1.4922v19.852c0 9.0117-4.9648 17.262-14.738 24.574l9.9258 18.188c2.6836 2.2266 16.086 12.379 36.945 12.379s34.258-10.156 36.945-12.379l9.8867-18.117c-8.9062-6.625-14.699-14.625-14.699-24.645v-19.852c-9.8555 0.99219-20.555 1.4922-32.133 1.4922z"/>
  <path d="m362.39 481.59c2.5664 0 5.0781 0.23438 7.5234 0.66016l20.832-38.176c-7.1914 3.125-16.75 5.8164-28.355 5.8164s-21.16-2.6914-28.355-5.8164l20.832 38.176c2.4453-0.42578 4.957-0.66016 7.5234-0.66016z"/>
  <use x="98.476562" y="577.214844" xlink:href="#v"/>
  <use x="102.6875" y="577.214844" xlink:href="#d"/>
  <use x="105.515625" y="577.214844" xlink:href="#b"/>
  <use x="109.40625" y="577.214844" xlink:href="#l"/>
  <use x="113.28125" y="577.214844" xlink:href="#a"/>
  <use x="116.023438" y="577.214844" xlink:href="#b"/>
  <use x="119.914062" y="577.214844" xlink:href="#f"/>
  <use x="126.019531" y="577.214844" xlink:href="#k"/>
  <use x="130.125" y="577.214844" xlink:href="#e"/>
  <use x="135.863281" y="577.214844" xlink:href="#j"/>
  <use x="140.304688" y="577.214844" xlink:href="#i"/>
  <use x="146.28125" y="577.214844" xlink:href="#b"/>
  <use x="150.175781" y="577.214844" xlink:href="#a"/>
  <use x="152.917969" y="577.214844" xlink:href="#h"/>
  <use x="157" y="577.214844" xlink:href="#e"/>
  <use x="160.742188" y="577.214844" xlink:href="#u"/>
  <use x="164.15625" y="577.214844" xlink:href="#a"/>
  <use x="168.898438" y="577.214844" xlink:href="#t"/>
  <use x="173.03125" y="577.214844" xlink:href="#a"/>
  <use x="175.773438" y="577.214844" xlink:href="#g"/>
  <use x="179.859375" y="577.214844" xlink:href="#f"/>
  <use x="183.964844" y="577.214844" xlink:href="#s"/>
  <use x="185.929688" y="577.214844" xlink:href="#c"/>
  <use x="98.476562" y="582.949219" xlink:href="#r"/>
  <use x="100.972656" y="582.949219" xlink:href="#d"/>
  <use x="103.800781" y="582.949219" xlink:href="#c"/>
  <use x="107.742187" y="582.949219" xlink:href="#i"/>
  <use x="115.71875" y="582.949219" xlink:href="#a"/>
  <use x="118.464844" y="582.949219" xlink:href="#h"/>
  <use x="122.546875" y="582.949219" xlink:href="#b"/>
  <use x="128.4375" y="582.949219" xlink:href="#q"/>
  <use x="133.238281" y="582.949219" xlink:href="#c"/>
  <use x="137.179688" y="582.949219" xlink:href="#g"/>
  <use x="141.265625" y="582.949219" xlink:href="#p"/>
  <use x="147.347656" y="582.949219" xlink:href="#o"/>
  <use x="151.554687" y="582.949219" xlink:href="#d"/>
  <use x="154.382812" y="582.949219" xlink:href="#c"/>
  <use x="158.324219" y="582.949219" xlink:href="#n"/>
  <use x="160.292969" y="582.949219" xlink:href="#b"/>
  <use x="164.183594" y="582.949219" xlink:href="#m"/>
  <use x="167.582031" y="582.949219" xlink:href="#a"/>
 </g>
</svg>
