<svg xmlns="http://www.w3.org/2000/svg">
  <g id="arrow" transform="translate(20 -3571.784)">
    <path id="Polygon_2" data-name="Polygon 2" d="M495.292,14.409a16,16,0,0,1,24.415,0L992.681,572.657A16,16,0,0,1,980.474,599H34.526a16,16,0,0,1-12.208-26.343Z" transform="translate(1466 3756) rotate(90)" fill="#ee3d9b"/>
    <rect id="Rectangle_14" data-name="Rectangle 14" width="914" height="699" transform="translate(-20 3924)" fill="#ee3d9b"/>
  </g>
  <g id="bluehead" transform="translate(20 -3571.784)">
    <g id="Group_41" data-name="Group 41">
      <g id="Group_17" data-name="Group 17" transform="translate(1098.639 3775.896)">
        <path id="Path_1" data-name="Path 1" d="M117.68,613.052,203.92,448.4V395.423c0-218.378,177.038-395.43,395.43-395.43S994.779,177.032,994.779,395.4c0,113.7-48.052,216.111-124.871,288.247V1040.6H401.636V915.727H287.166a83.494,83.494,0,0,1-83.25-83.25V686.8H162.3c-45.788,0-65.857-33.186-44.62-73.749ZM318.386,499.49a31.22,31.22,0,1,0-31.22-31.22A31.233,31.233,0,0,0,318.386,499.49Z" transform="translate(-109.2 0.007)"/>
      </g>
      <g id="Group_17-2" data-name="Group 17" transform="translate(1166.21 3775.896)">
        <path id="Path_1-2" data-name="Path 1" d="M117.68,613.052,203.92,448.4V395.423c0-218.378,177.038-395.43,395.43-395.43S994.779,177.032,994.779,395.4c0,113.7-48.052,216.111-124.871,288.247V1040.6H401.636V915.727H287.166a83.494,83.494,0,0,1-83.25-83.25V686.8H162.3c-45.788,0-65.857-33.186-44.62-73.749ZM318.386,499.49a31.22,31.22,0,1,0-31.22-31.22A31.233,31.233,0,0,0,318.386,499.49Z" transform="translate(-109.2 0.007)" fill="#5bbab4"/>
      </g>
      <path id="Path_10" data-name="Path 10" d="M374.283,3565.2v356.148H840.532s13.807-193.154,12.081-209.685,25.025-136.6,10.355-152.261-125.986-43.5-125.986-43.5l-362.7,26.1Z" transform="translate(1017.183 1255.106)"/>
      <path id="Path_9" data-name="Path 9" d="M374.283,3576.724v439.434H841.948s13.849-238.323,12.117-258.721,25.1-168.544,10.386-187.867-126.368-53.676-126.368-53.676l-363.8,32.206Z" transform="translate(1084.339 1173.583)" fill="#5bbab4"/>
    </g>
  </g>
  <path id="moneybag" d="M464.889,291.214c-16.9-35.468-46.533-72.373-86.048-107.306a19.075,19.075,0,0,0,7.339-6.939A19.432,19.432,0,0,0,389,167.2a18.656,18.656,0,0,0-5.37-13.031A18.693,18.693,0,0,0,389,141.127a19.188,19.188,0,0,0-9.621-16.389c20.426-38.366,25.34-66.592,13.769-79.87-4.963-5.692-14.783-10.675-33.843-4.243h0a69.693,69.693,0,0,0-7.658-14.413,42.984,42.984,0,0,0-34.923-20.32,42.974,42.974,0,0,0-34.938,20.32,69.862,69.862,0,0,0-7.658,14.413c-19.048-6.428-28.867-1.449-33.843,4.243-11.571,13.275-6.657,41.5,13.762,79.866v0a19.2,19.2,0,0,0-9.621,16.4,18.7,18.7,0,0,0,5.37,13.038,18.689,18.689,0,0,0-5.37,13.031,19.441,19.441,0,0,0,2.818,9.77,19.084,19.084,0,0,0,7.339,6.943c-39.493,34.934-69.123,71.838-86.023,107.306-17.776,37.287-21.485,72.515-10.732,101.874,8.828,24.184,27.57,43.82,54.123,56.8,27.538,13.443,62.785,19.868,104.779,19.023q3.652.074,7.248.076c38.81,0,71.613-6.415,97.523-19.1,26.552-12.978,45.268-32.621,54.123-56.8,10.756-29.374,7.047-64.6-10.73-101.883ZM265.275,173.8a7.606,7.606,0,0,1-8.165-6.6,7.609,7.609,0,0,1,8.165-6.6H286.8a6.437,6.437,0,0,0,0-12.862H265.275a7.606,7.606,0,0,1-8.165-6.6,7.616,7.616,0,0,1,8.165-6.6h102.9a7.616,7.616,0,0,1,8.165,6.6,7.606,7.606,0,0,1-8.165,6.6H346.646a6.437,6.437,0,0,0,0,12.862H368.19a7.606,7.606,0,0,1,8.162,6.6,7.6,7.6,0,0,1-8.162,6.6ZM383.659,53.389c6.264,7.19,3.283,30.991-17.065,68.274H352.452a127.115,127.115,0,0,0,12.712-49.192,91.068,91.068,0,0,0-2.1-19.551c9.946-3.405,17.324-3.286,20.6.469ZM316.723,18.752c19.723,0,35.774,24.1,35.774,53.72a121.9,121.9,0,0,1-14.11,49.192H295.06a122.025,122.025,0,0,1-14.11-49.192c0-29.618,16.05-53.72,35.774-53.72ZM249.788,53.389c3.273-3.748,10.648-3.871,20.6-.469a91.052,91.052,0,0,0-2.1,19.551A127.127,127.127,0,0,0,281,121.664H266.859C246.508,84.38,243.525,60.573,249.788,53.39Zm213.959,335.2c-16.268,44.434-69.812,69.017-146.9,67.436h-.254c-77.077,1.564-130.624-23.015-146.9-67.446-9.52-25.992-5.971-57.732,10.262-91.788,17.279-36.24,48.721-74.3,90.982-110.152H362.5c42.255,35.851,73.7,73.9,90.982,110.152,16.233,34.066,19.782,65.806,10.262,91.8ZM304.333,283.028v19.848c0,9.018,4.011,10.358,13.886,12.766,9.4,2.3,23.594,5.765,23.594,25.276v19.854a25.755,25.755,0,0,1-5.24,15.551,25.1,25.1,0,0,1-13.5,9.077v16a6.337,6.337,0,1,1-12.673,0v-16.01a25.1,25.1,0,0,1-13.5-9.077,25.756,25.756,0,0,1-5.24-15.551,6.48,6.48,0,0,1,1.794-4.663,6.265,6.265,0,0,1,9.085,0,6.478,6.478,0,0,1,1.791,4.663,12.628,12.628,0,0,0,6.2,10.905,12.244,12.244,0,0,0,12.407,0,12.621,12.621,0,0,0,6.2-10.905V340.911c0-9.012-4.011-10.351-13.886-12.766-9.4-2.3-23.594-5.765-23.594-25.276V283.018a25.734,25.734,0,0,1,5.24-15.551,25.08,25.08,0,0,1,13.5-9.074V244.946a6.337,6.337,0,1,1,12.673,0v13.446a25.084,25.084,0,0,1,13.5,9.074,25.735,25.735,0,0,1,5.24,15.551,6.336,6.336,0,0,1-12.67,0,12.629,12.629,0,0,0-6.2-10.905,12.259,12.259,0,0,0-12.407,0,12.637,12.637,0,0,0-6.2,10.905Z" transform="translate(1422.927 300.531)" fill="#ffeaba"/>
  <g id="tinyarrows" transform="translate(20 -3571.784)">
    <path id="Polygon_3" data-name="Polygon 3" d="M51.4,2.147a2,2,0,0,1,3.205,0L103.614,67.8a2,2,0,0,1-1.6,3.2H3.989a2,2,0,0,1-1.6-3.2Z" transform="matrix(-0.602, 0.799, -0.799, -0.602, 1278.666, 3878.91)" fill="#ee3d9b"/>
    <rect id="Rectangle_15" data-name="Rectangle 15" width="46" height="79" transform="matrix(-0.602, 0.799, -0.799, -0.602, 1209.499, 3864.353)" fill="#ee3d9b"/>
  </g>
  <g id="tinyarrows-2" data-name="tinyarrows" transform="translate(20 -3571.784)">
    <path id="Polygon_3-2" data-name="Polygon 3" d="M51.4,2.147a2,2,0,0,1,3.205,0L103.614,67.8a2,2,0,0,1-1.6,3.2H3.989a2,2,0,0,1-1.6-3.2Z" transform="translate(1451.503 3688.708) rotate(155)" fill="#ee3d9b"/>
    <rect id="Rectangle_15-2" data-name="Rectangle 15" width="46" height="79" transform="translate(1397.267 3643.383) rotate(155)" fill="#ee3d9b"/>
  </g>
  <g id="tinyarrows-3" data-name="tinyarrows" transform="translate(20 -3570.784)">
    <path id="Polygon_3-3" data-name="Polygon 3" d="M51.4,2.147a2,2,0,0,1,3.205,0L103.614,67.8a2,2,0,0,1-1.6,3.2H3.989a2,2,0,0,1-1.6-3.2Z" transform="matrix(-0.999, -0.035, 0.035, -0.999, 1722.936, 3719.612)" fill="#ee3d9b"/>
    <rect id="Rectangle_15-3" data-name="Rectangle 15" width="46" height="79" transform="matrix(-0.999, -0.035, 0.035, -0.999, 1695.187, 3654.604)" fill="#ee3d9b"/>
  </g>
</svg>
