<svg xmlns="http://www.w3.org/2000/svg" width="1282" height="551.353" viewBox="0 0 1282 551.353">
  <g id="Group_35" data-name="Group 35" transform="translate(-329 -5848)">
    <circle id="Ellipse_4" data-name="Ellipse 4" cx="242.5" cy="242.5" r="242.5" transform="translate(329 5848)" fill="#100000"/>
    <path id="Path_40" data-name="Path 40" d="M793.745,6189.905l21.492,27.148L967.289,6364l167.1-150.394,17.73-23.7Z" transform="translate(-401.431 29.095)" fill="#100000"/>
  </g>
  <g id="Group_34" data-name="Group 34" transform="translate(-329 -5848)">
    <path id="Path_84" data-name="Path 84" d="M793.745,6189.905l21.492,27.148L967.289,6364l167.1-150.394,17.73-23.7Z" transform="translate(402.811 35.353)" fill="#100000"/>
    <circle id="Ellipse_5" data-name="Ellipse 5" cx="242.5" cy="242.5" r="242.5" transform="translate(1126 5848)" fill="#100000"/>
  </g>
  <g id="childrenplay" transform="translate(121.75 91.245)">
    <path id="Path_12" data-name="Path 12" d="M163.494,269.219a59.038,59.038,0,0,1-8.569-.519,10.924,10.924,0,0,1,1.676-21.718,11.462,11.462,0,0,1,1.654.122c.293.038.608.072,1.045.108.872.072,2.3.156,4.193.156a80.207,80.207,0,0,0,11.224-.85,13.9,13.9,0,0,0-9.658-8.122c-9.759-2.06-24.033,2.944-30.051,18.185-8.141,21-10.04,34.62-7.442,57.575,2.486,12.437,10.192,16.423,18.321,17.525a161.588,161.588,0,0,1,3.923,37.055,228.617,228.617,0,0,1-1.88,28.711,12.854,12.854,0,1,0,25.5,3.237,253.949,253.949,0,0,0,2.083-31.948c0-25.183-4.146-42.6-6.934-51.457-.011-.342-.021-.684-.04-1.042-2.072-15.609,2.237-33.609,5.6-47.61a97.838,97.838,0,0,1-10.509.591l-.141,0Z" transform="translate(-126.477 -109.412)" fill="#5bbab4"/>
    <path id="Path_13" data-name="Path 13" d="M185.079,156.444a27.24,27.24,0,1,1-27.24-27.24,27.24,27.24,0,0,1,27.24,27.24" transform="translate(-128.372 -59.408)" fill="#5bbab4"/>
    <path id="Path_14" data-name="Path 14" d="M432.193,18.589A28.911,28.911,0,1,1,394.862,1.919a28.91,28.91,0,0,1,37.331,16.671" transform="translate(-241.332 -0.002)" fill="#5bbab4"/>
    <path id="Path_15" data-name="Path 15" d="M281,172.1a129.09,129.09,0,0,0,14.024-8.926,10.846,10.846,0,0,1,6.43-2.1,10.976,10.976,0,0,1,8.835,4.488c.133.181.247.371.367.559.686-.673,1.253-1.2,1.663-1.562a10.809,10.809,0,0,0,10.137.787c.61,2.258,1.464,5.3,2.524,8.787a12.738,12.738,0,0,1,7.911-3.575,77.685,77.685,0,0,0,23.026-5.077c-9.274-5.868-21.836-9.614-27.251-11.053a10.275,10.275,0,0,0-2.76-5.683c2.285-2.277,8.767-8.576,13.491-11.654a38.616,38.616,0,0,1,22.423,25.554.1.1,0,0,1,.021-.011A39.165,39.165,0,0,0,375.68,149.8a42.364,42.364,0,0,0,6.552-21.732c0-.251,0-.4,0-.477A12.85,12.85,0,0,1,394.3,114.068c.257-.015.511-.023.768-.023a12.868,12.868,0,0,1,12.826,12.091c.011.2.049.859.049,1.9a68.343,68.343,0,0,1-4.82,24.349,63.621,63.621,0,0,1-13.1,20.6,116.869,116.869,0,0,1,3.933,27.553,56,56,0,0,0,1.011,7.434,205.39,205.39,0,0,0-9.152,60.579A193.548,193.548,0,0,0,397.8,336a16.065,16.065,0,0,0,30.129-11.159,161.378,161.378,0,0,1-9.977-56.295,174.375,174.375,0,0,1,5.837-44.609c1.156-4.343,2.306-7.922,3.256-10.631,6.339-3.566,11.3-10.049,11.984-22.323-.6-28.738-4.754-45.2-16.949-69.7-8.974-17.768-25.544-21.507-36.04-17.3-4.94,1.977-8.129,6.544-9.582,12.081a10.262,10.262,0,0,0-.711,2.72l0,.042a118.309,118.309,0,0,1-8.519,29.319c-.876,2.019-1.838,4.068-2.878,6.124A43.69,43.69,0,0,0,281,172.094Zm31.619-35.987,1.313,10.156a10.427,10.427,0,0,0-6.417,8.9l-17.162.158a38.627,38.627,0,0,1,22.267-19.219Z" transform="translate(-197.526 -47.088)" fill="#5bbab4"/>
    <path id="Path_16" data-name="Path 16" d="M339.62,269.512c-.355.027-.7.04-1.034.04-.352,0-.7-.021-1.047-.051a95.589,95.589,0,0,0,6.1,12.134,38.36,38.36,0,0,1-44.415-11.863,40.023,40.023,0,0,1,1.711-7.894c-3.307,1.979-6.556,3.744-9.745,5.328a43.7,43.7,0,0,0,78.469-4.345,103.519,103.519,0,0,1-30.04,6.651Z" transform="translate(-202.212 -120.411)" fill="#5bbab4"/>
    <path id="Path_17" data-name="Path 17" d="M441.6,138.377a10.282,10.282,0,1,0-20.528,1.22c0,.091.008.268.008.523a44.969,44.969,0,0,1-6.968,23.168,41.65,41.65,0,0,1-14.727,13.678c-7.006,3.973-16.6,7.172-30.015,8.251a10.284,10.284,0,0,0,.81,20.534c.274,0,.551-.011.829-.034,15.877-1.266,28.57-5.208,38.527-10.869a61.805,61.805,0,0,0,27.468-31.325,65.233,65.233,0,0,0,4.634-23.4c0-.956-.027-1.559-.04-1.743Z" transform="translate(-233.809 -59.179)" fill="#5bbab4"/>
    <path id="Path_18" data-name="Path 18" d="M255.692,219.2a8.353,8.353,0,0,0-11.671-1.825c-27.283,19.888-51.351,22.34-61.989,22.363-1.958,0-3.45-.087-4.406-.167-.479-.04-.825-.078-1.023-.1-.1-.013-.167-.021-.2-.027v0a8.353,8.353,0,0,0-2.547,16.51,56.935,56.935,0,0,0,8.173.487h.143c13.279,0,41.188-3.3,71.7-25.575A8.349,8.349,0,0,0,255.7,219.2Z" transform="translate(-145.013 -99.21)" fill="#5bbab4"/>
  </g>
  <g id="athlete" transform="translate(-329 -5848)">
    <path id="Path_19" data-name="Path 19" d="M138.38,378.038v25.111c0,10.13,1,20.73,8.273,29.616,5,6.105,13.539,12.068,18.187,15.077a9.772,9.772,0,0,1,4.478,8.227v5.719A9.857,9.857,0,0,1,163.6,470.7c-2.554,1.182-8.492,4.347-8.492,8.19,0,4.188,6.721,6.222,20.548,6.222s20.548-2.037,20.548-6.222c0-3.843-5.938-7.006-8.492-8.19A9.861,9.861,0,0,1,182,461.788v-5.719a9.761,9.761,0,0,1,4.478-8.227c4.648-3.011,13.192-8.972,18.187-15.079,7.27-8.887,8.273-19.486,8.273-29.616V378.036c-7.815,4.289-22.922,6.3-37.276,6.3s-29.462-2.009-37.28-6.3Z" transform="translate(1105.54 5773.476)" fill="#5bbab4"/>
    <path id="Path_20" data-name="Path 20" d="M369.366,251.7c10.326-11.371,14.946-51.578,14.946-86.381,0-5.4-.11-10.935-.338-16.468-7.073-2.11-35.06-9.677-72.593-9.677-37.586,0-65.531,7.565-72.593,9.677-.228,5.535-.338,11.068-.338,16.47,0,34.8,4.623,75.006,14.946,86.381,9.8,10.792,29.308,16.263,57.984,16.263s48.185-5.473,57.984-16.266Zm-9.94-76.612a13.85,13.85,0,0,1-7.864,4.848,9.45,9.45,0,1,1-5.354-11.134,12.965,12.965,0,0,0,.34-1.317,2.7,2.7,0,0,1,5.3,1.067,17.645,17.645,0,0,1-1.319,4.032,9.5,9.5,0,0,1,.848,1.8,8.1,8.1,0,0,0,3.8-2.63,2.7,2.7,0,1,1,4.255,3.333Zm-31.129-17c.234-.255,5.88-6.278,16.847-6.278s16.612,6.022,16.847,6.278a2.7,2.7,0,0,1-3.97,3.664c-.2-.214-4.427-4.54-12.877-4.54-8.48,0-12.7,4.356-12.88,4.542a2.7,2.7,0,0,1-3.968-3.666Zm-67.526,0c.234-.255,5.88-6.278,16.847-6.278s16.612,6.022,16.847,6.278a2.7,2.7,0,1,1-3.981,3.65c-.161-.17-4.386-4.526-12.866-4.526s-12.7,4.356-12.88,4.542a2.7,2.7,0,0,1-3.968-3.666Zm19.551,28.837a9.449,9.449,0,0,1-9.119-6.99,13.874,13.874,0,0,1-7.864-4.848,2.7,2.7,0,1,1,4.257-3.328,8.1,8.1,0,0,0,3.8,2.63,9.226,9.226,0,0,1,.848-1.8,17.758,17.758,0,0,1-1.319-4.032,2.7,2.7,0,1,1,5.3-1.067,12.694,12.694,0,0,0,.34,1.317,9.452,9.452,0,1,1,3.763,18.121Zm10.243,25.1a2.7,2.7,0,0,1,3.82,0c.025.023,4.981,4.611,17,4.611S328.355,212.049,328.4,212a2.717,2.717,0,0,1,3.809.057,2.689,2.689,0,0,1-.012,3.786c-.253.253-6.361,6.192-20.819,6.192s-20.564-5.94-20.819-6.192a2.7,2.7,0,0,1,0-3.82Z" transform="translate(1064.357 5871.777)" fill="#5bbab4"/>
    <path id="Path_21" data-name="Path 21" d="M282.291,404.354l-8.622,5.531a79.31,79.31,0,0,1-.814,11.287,26.158,26.158,0,0,0,6.586-2.264,23.532,23.532,0,0,0,10.7-10.268c1.963-3.963,2.145-7.942.515-11.2-2.6-5.213-9.415-7.638-16.98-6.243V403.46l5.7-3.655a2.7,2.7,0,0,1,2.919,4.549Z" transform="translate(1050.198 5768.222)" fill="#5bbab4"/>
    <path id="Path_22" data-name="Path 22" d="M203.251,356.178c-7.333-1.919-17.13-2.977-27.584-2.977s-20.251,1.057-27.584,2.977c-7.967,2.085-9.691,4.338-9.691,4.784s1.724,2.7,9.691,4.784c7.333,1.919,17.13,2.977,27.584,2.977s20.251-1.057,27.584-2.977c7.967-2.085,9.691-4.338,9.691-4.784S211.218,358.263,203.251,356.178Z" transform="translate(1105.535 5783.696)" fill="#5bbab4"/>
    <path id="Path_23" data-name="Path 23" d="M223.693,493.677a4.384,4.384,0,0,0-2.011,3.694v5.719a4.444,4.444,0,0,0,2.584,4.007c7.6,3.522,11.622,8.048,11.622,13.091a8.592,8.592,0,0,1-2.455,6.222h8.921V478.386c-5.51,6.34-13.971,12.254-18.661,15.291Z" transform="translate(1071.258 5732.179)" fill="#5bbab4"/>
    <path id="Path_24" data-name="Path 24" d="M384.133,117.735a305.208,305.208,0,0,0-3.278-31.612,279.472,279.472,0,0,0-138.077,0,305.131,305.131,0,0,0-3.278,31.612c9.53-2.731,36.354-9.358,72.316-9.358S374.6,115,384.132,117.735Z" transform="translate(1063.925 5897.173)" fill="#5bbab4"/>
    <path id="Path_25" data-name="Path 25" d="M107.948,404.351a2.7,2.7,0,0,1,2.917-4.549l5.7,3.655V391.187c-7.565-1.4-14.374,1.03-16.98,6.243-1.63,3.262-1.448,7.241.515,11.2A23.519,23.519,0,0,0,110.8,418.9a26.223,26.223,0,0,0,6.586,2.264,79.61,79.61,0,0,1-.814-11.287Z" transform="translate(1121.96 5768.224)" fill="#5bbab4"/>
    <path id="Path_26" data-name="Path 26" d="M282.016,24.066a2.7,2.7,0,1,1,3.82,3.82c-4.625,4.625-7.052,10.519-7.542,18.378,5.464-.692,11.383-1.285,17.707-1.694.4-7.905,2.66-14.849,6.608-20.2a2.7,2.7,0,0,1,4.345,3.209c-3.223,4.365-5.115,10.091-5.533,16.691,4.315-.2,8.79-.313,13.418-.313s9.1.113,13.418.313c-.418-6.6-2.31-12.325-5.533-16.691a2.7,2.7,0,1,1,4.345-3.209c3.951,5.349,6.211,12.294,6.608,20.2,6.324.409,12.243,1,17.707,1.694-.492-7.859-2.919-13.755-7.542-18.378a2.7,2.7,0,1,1,3.82-3.82c5.834,5.834,8.772,13.169,9.172,22.943a253.039,253.039,0,0,1,26,5.147c-2.4-12.252-5.708-21.98-10-26.713-9.8-10.79-29.313-16.263-57.989-16.263s-48.185,5.471-57.984,16.263c-4.3,4.733-7.6,14.461-10,26.713a252.381,252.381,0,0,1,26-5.147c.4-9.774,3.338-17.111,9.172-22.943Z" transform="translate(1060.901 5925.274)" fill="#5bbab4"/>
    <path id="Path_27" data-name="Path 27" d="M217.125,213.868a6.242,6.242,0,0,0,4.285-2.211c-1.434-16.015-1.584-30.393-1.584-35.6,0-2.055.023-5.535.14-9.979a5.927,5.927,0,0,0-2.841-.825c-5.11,0-10.8,9.983-10.8,24.311s5.694,24.309,10.8,24.309Z" transform="translate(1077.579 5861.045)" fill="#5bbab4"/>
    <path id="Path_28" data-name="Path 28" d="M192.216,287.132a15.075,15.075,0,0,0,12.325,3.533c8.439-1.359,11.3-10.3,11.9-12.6-.556-2.977-1.048-6.022-1.483-9.091-2.356,4.735-6.112,9.236-12.075,10.668a24.327,24.327,0,0,1-16.279-1.382,18.07,18.07,0,0,0,5.611,8.871Z" transform="translate(1085.693 5818.358)" fill="#5bbab4"/>
    <path id="Path_29" data-name="Path 29" d="M388.865,463.421l27.288-41.6a96.643,96.643,0,0,1-14.845-6.588l-22.359,40.972a25.834,25.834,0,0,1,9.917,7.216Z" transform="translate(1006.537 5758.168)" fill="#5bbab4"/>
    <path id="Path_30" data-name="Path 30" d="M481.933,440.219c-2.558-1.6-8.006-3.384-13.967-5.278v73.587h29.713V468.607c0-12.323-5.3-21.877-15.746-28.391Z" transform="translate(969.903 5750.058)" fill="#5bbab4"/>
    <path id="Path_31" data-name="Path 31" d="M396.332,474.182a25.709,25.709,0,0,1-7.161,32.126h40.962V431c-1.492-.478-3-.97-4.512-1.473Z" transform="translate(1002.33 5752.285)" fill="#5bbab4"/>
    <path id="Path_32" data-name="Path 32" d="M368.511,511.144a20.369,20.369,0,1,1-20.369-20.371,20.368,20.368,0,0,1,20.369,20.371" transform="translate(1027.597 5727.081)" fill="#5bbab4"/>
    <path id="Path_33" data-name="Path 33" d="M296.943,493.508a25.591,25.591,0,0,1,2.85-11.758L277.6,447.918a30.947,30.947,0,0,1-8.767,2.414,40.627,40.627,0,0,1-2.843,7.473l0,56.072h40.962a25.74,25.74,0,0,1-10.009-20.369Z" transform="translate(1053.024 5744.717)" fill="#5bbab4"/>
    <path id="Path_34" data-name="Path 34" d="M324.417,459.127l-20.07-36.781c-.223.559-.464,1.115-.74,1.669a28.04,28.04,0,0,1-9.795,10.783l20.69,31.545a25.89,25.89,0,0,1,9.914-7.216Z" transform="translate(1041.574 5755.241)" fill="#5bbab4"/>
    <path id="Path_35" data-name="Path 35" d="M497.094,213.867c5.11,0,10.8-9.983,10.8-24.311s-5.694-24.311-10.8-24.311a5.935,5.935,0,0,0-2.841.825c.115,4.443.14,7.924.14,9.979,0,5.209-.149,19.587-1.584,35.6a6.241,6.241,0,0,0,4.285,2.214Z" transform="translate(959.679 5861.047)" fill="#5bbab4"/>
    <path id="Path_36" data-name="Path 36" d="M513.46,194.828c-3.984-12.162-1.7-41.507.722-72.575,2.257-28.98,4.59-58.946,1.991-76.271C511.4,14.18,498.25,0,473.535,0c-15.564,0-22.311,6.085-24.849,9.443a42.364,42.364,0,0,1,10.3,7.638c5.675-.246,25.568-.216,35.5,11.351,11.16,13,9.411,59.27,9.33,61.236a2.7,2.7,0,0,1-2.7,2.591c-.037,0-.074,0-.113,0a2.7,2.7,0,0,1-2.588-2.809c.52-12.786.087-48.036-8.031-57.5-6.8-7.917-20.167-9.337-27.322-9.5,9.273,15.84,12.041,49.162,12.85,69.857a10.564,10.564,0,0,1,3.027-.471c9.089,0,16.206,13.052,16.206,29.713s-7.119,29.713-16.206,29.713a10.055,10.055,0,0,1-4.91-1.31c-.657,6.011-1.513,12.107-2.616,17.921-.131,3.558-.563,32.188,18.4,47.5,14.043,11.341,36.51,7.83,48.815,4.669-8.452-3.2-20.256-10.227-25.166-25.219Z" transform="translate(977.838 5929.052)" fill="#5bbab4"/>
    <path id="Path_37" data-name="Path 37" d="M471.253,313.05c-1.984,5.763-4.4,10.588-7.353,13.838a38.5,38.5,0,0,1-5.455,4.933,24.469,24.469,0,0,0,13.316,20c8.144,4.351,20.035,3.7,28.759,2.342a37.152,37.152,0,0,1-10.091-5.751c-12.206-9.859-17.185-24.175-19.176-35.366Z" transform="translate(973.822 5800.22)" fill="#5bbab4"/>
    <path id="Path_38" data-name="Path 38" d="M343.1,366.6a188.665,188.665,0,0,1-18.909-.878V377.4c0,5.3-2.922,10.158-8.673,14.461l5.841,10.7a36.085,36.085,0,0,0,43.482,0L370.66,391.9c-5.241-3.9-8.65-8.606-8.65-14.5V365.718q-8.7.876-18.909.878Z" transform="translate(1032.641 5778.545)" fill="#5bbab4"/>
    <path id="Path_39" data-name="Path 39" d="M350.721,466.151a25.78,25.78,0,0,1,4.427.388l12.259-22.465a42.383,42.383,0,0,1-33.372,0l12.259,22.465a25.779,25.779,0,0,1,4.427-.388Z" transform="translate(1025.02 5746.299)" fill="#5bbab4"/>
  </g>
</svg>
