<svg xmlns="http://www.w3.org/2000/svg" width="953.056" height="485.057" viewBox="0 0 953.056 485.057">
  <g id="noun-eyes-912607">
    <path id="Path_41" data-name="Path 41" d="M799.287,155.12c-87.688,0-169.612,42.038-216.918,108.866C535.06,197.158,453.142,155.12,365.45,155.12c-143.076,0-259.61,108.866-259.61,242.529S222.374,640.177,365.45,640.177c87.688,0,169.612-42.038,216.918-108.866,47.309,66.828,129.226,108.866,216.918,108.866,143.076,0,259.61-108.866,259.61-242.529S943.514,155.12,799.287,155.12Zm0,443.019c-84.227,0-161.531-47.43-196.148-119.647l-20.765-45.272L561.61,478.491c-34.617,72.22-110.771,119.647-196.148,119.647-117.692,0-213.457-89.466-213.457-199.412s95.767-199.412,213.457-199.412c84.227,0,161.531,46.346,196.148,119.647l20.765,45.272,20.765-45.272c34.617-72.22,110.771-119.647,196.148-119.647,117.692,0,213.457,89.466,213.457,199.412S918.126,598.139,799.287,598.139Z" transform="translate(-105.84 -155.12)"/>
    <path id="Path_42" data-name="Path 42" d="M372.314,240.892a136.24,136.24,0,1,1-180.321,67.876,136.237,136.237,0,0,1,180.321-67.876" transform="translate(-36.659 -117.868)"/>
    <path id="Path_43" data-name="Path 43" d="M659.434,364.719a136.237,136.237,0,1,1-136.24-136.24,136.235,136.235,0,0,1,136.24,136.24" transform="translate(157.073 -117.971)"/>
  </g>
  <text id="_" data-name="$" transform="translate(181.346 142.263)" fill="#fff1d1" font-size="150" font-family="SofiaProSoftMedium, Sofia Pro Soft"><tspan x="-41.7" y="162">$</tspan></text>
  <text id="_2" data-name="$" transform="translate(581.346 142.263)" fill="#fff1d1" font-size="150" font-family="SofiaProSoftMedium, Sofia Pro Soft"><tspan x="-41.7" y="162">$</tspan></text>
</svg>
