<svg xmlns="http://www.w3.org/2000/svg" width="267.101" height="267.101" viewBox="0 0 267.101 267.101">
  <g id="feeling" transform="translate(-84 -14)">
    <path id="Path_92" data-name="Path 92" d="M340.841,310.8H340c-43.3,0-73.664,25.3-75.069,26.429a9.711,9.711,0,0,0-1.124,13.5,9.616,9.616,0,0,0,13.5,1.124c.28-.28,26.429-21.93,62.417-21.93h.563a9.479,9.479,0,0,0,9.559-9.559c.561-5.06-3.658-9.278-9-9.559Z" transform="translate(-88.426 -147.786)" fill="#5bbab4"/>
    <path id="Path_93" data-name="Path 93" d="M217.551,14A133.551,133.551,0,1,0,351.1,147.551,133.671,133.671,0,0,0,217.551,14Zm0,247.7A114.151,114.151,0,1,1,331.7,147.551,114.233,114.233,0,0,1,217.551,261.7Z" fill="#5bbab4"/>
    <path id="Path_94" data-name="Path 94" d="M263.9,200.271a17.151,17.151,0,1,1-17.151-17.151A17.153,17.153,0,0,1,263.9,200.271" transform="translate(-72.499 -84.21)" fill="#5bbab4"/>
    <path id="Path_95" data-name="Path 95" d="M436.381,200.271a17.151,17.151,0,1,1-17.151-17.151,17.151,17.151,0,0,1,17.151,17.151" transform="translate(-158.382 -84.21)" fill="#5bbab4"/>
  </g>
</svg>
