<svg xmlns="http://www.w3.org/2000/svg" width="416.936" height="403.906" viewBox="0 0 416.936 403.906">
  <g id="iceberg" transform="translate(-69.989 0.008)">
    <path id="Path_99" data-name="Path 99" d="M490,280h71.66v13.029H490Z" transform="translate(-107.306 -71.538)" fill="#6abeff"/>
    <path id="Path_100" data-name="Path 100" d="M455,280h13.029v13.029H455Z" transform="translate(-98.364 -71.538)" fill="#6abeff"/>
    <path id="Path_101" data-name="Path 101" d="M236.25,280H386.084v13.029H236.25Z" transform="translate(-42.477 -71.538)" fill="#6abeff"/>
    <path id="Path_102" data-name="Path 102" d="M78.75,280H182.982v13.029H78.75Z" transform="translate(-2.238 -71.538)" fill="#6abeff"/>
    <path id="Path_103" data-name="Path 103" d="M187.658,267.685l-11.9-5.316,26.058-58.226a6.471,6.471,0,0,1,7.407-3.688l15.484,3.551,6.267-8.112,10.313,7.975-8.826,11.4a6.516,6.516,0,0,1-6.613,2.364l-14.332-3.257Z" transform="translate(-27.024 -50.05)" fill="#6abeff"/>
    <path id="Path_104" data-name="Path 104" d="M442.444,227.941l-8.736-15.283-21.277,5.316a6.514,6.514,0,0,1-5.648-1.233L376,192.111H352.223a6.517,6.517,0,0,1-5.421-2.9l-24.121-36.187h-32.41L267.015,183.07,256.708,175.1l25.217-32.573A6.518,6.518,0,0,1,287.079,140h39.087a6.517,6.517,0,0,1,5.421,2.9l24.121,36.187h22.574a6.513,6.513,0,0,1,4.072,1.428L412.4,204.556l22.932-5.732v0a6.513,6.513,0,0,1,7.23,3.089l11.185,19.544Z" transform="translate(-47.704 -35.769)" fill="#6abeff"/>
    <path id="Path_105" data-name="Path 105" d="M516.18,273.4l11.313-6.465,7.431,13L523.611,286.4Z" transform="translate(-113.995 -68.2)" fill="#6abeff"/>
    <path id="Path_106" data-name="Path 106" d="M515,304.995l7.928-19.541,12.072,4.9-7.928,19.541Z" transform="translate(-113.693 -72.931)" fill="#6abeff"/>
    <path id="Path_107" data-name="Path 107" d="M342.883,476.886H324.316a6.522,6.522,0,0,1-4.5-1.8,154.213,154.213,0,0,0-11.932-10.138c-3.961-3.132-8.065-6.378-12.82-10.912h0a6.523,6.523,0,0,1-1.954-3.705l-5.174-33.087-8.507,8.6a6.514,6.514,0,0,1-9.12.148l-36.545-34.527L209.7,377.819a6.518,6.518,0,0,1-2.9-3.4l-31.27-84.182,12.215-4.56,30.447,81.971,22.691,12.866a6.381,6.381,0,0,1,1.259.936l32.509,30.7,13.113-13.25h0a6.515,6.515,0,0,1,11.075,3.577l6.814,43.647c3.656,3.362,6.9,5.927,10.318,8.632s6.965,5.491,10.924,9.12h11.38l39.186-111.171h0A6.518,6.518,0,0,1,385.9,348.8l21.42,8.044L423,318.135l12.072,4.9-18.066,44.593v0a6.517,6.517,0,0,1-8.327,3.656l-21.173-8L349,472.534a6.512,6.512,0,0,1-6.116,4.351Z" transform="translate(-26.965 -72.988)" fill="#6abeff"/>
    <path id="Path_108" data-name="Path 108" d="M603.75,280h13.029v13.029H603.75Z" transform="translate(-136.368 -71.538)" fill="#6abeff"/>
    <path id="Path_109" data-name="Path 109" d="M291.32,275.863l19.547-19.547,9.213,9.213-19.547,19.547Z" transform="translate(-56.547 -65.487)" fill="#6abeff"/>
    <path id="Path_110" data-name="Path 110" d="M326.32,245.325l6.514-6.515,9.213,9.213-6.514,6.515Z" transform="translate(-65.489 -61.014)" fill="#6abeff"/>
    <path id="Path_111" data-name="Path 111" d="M343.82,221.118l26.058-26.058,9.213,9.213-26.058,26.058Z" transform="translate(-69.96 -49.837)" fill="#6abeff"/>
    <path id="Path_112" data-name="Path 112" d="M286.08,390.4l-13.029-13.029a6.513,6.513,0,0,1-1.623-2.69L245.37,289.992l12.456-3.83,25.581,83.147,11.868,11.868Z" transform="translate(-44.807 -73.112)" fill="#6abeff"/>
    <path id="Path_113" data-name="Path 113" d="M308.83,431.8l9.213-9.213L331.06,435.6l-9.213,9.213Z" transform="translate(-61.02 -107.966)" fill="#6abeff"/>
    <path id="Path_114" data-name="Path 114" d="M144.91,65.143H86.28A16.635,16.635,0,0,1,69.993,48.206,28.712,28.712,0,0,1,90.115,20.324,25.41,25.41,0,0,1,115.594,0a25.41,25.41,0,0,1,25.479,20.326,28.712,28.712,0,0,1,20.122,27.881,16.635,16.635,0,0,1-16.287,16.937ZM115.6,13.027a12.6,12.6,0,0,0-13.029,13.029,6.514,6.514,0,0,1-6.515,6.515A15.1,15.1,0,0,0,83.023,48.206a3.675,3.675,0,0,0,3.257,3.909H144.91a3.675,3.675,0,0,0,3.257-3.909,15.1,15.1,0,0,0-13.029-15.635,6.515,6.515,0,0,1-6.515-6.515A12.6,12.6,0,0,0,115.6,13.027Z" transform="translate(0 0)" fill="#6abeff"/>
    <path id="Path_115" data-name="Path 115" d="M247.878,104.61H215.306a21.389,21.389,0,0,1-22.8-19.543,20.446,20.446,0,0,1,17.368-18.982,23.871,23.871,0,0,1,43.437,0,20.446,20.446,0,0,1,17.368,18.982,21.389,21.389,0,0,1-22.8,19.543ZM231.592,65.523c-5.758,0-9.772,3.432-9.772,6.515a6.514,6.514,0,0,1-6.515,6.515c-5.758,0-9.772,3.432-9.772,6.515s4.013,6.515,9.772,6.515h32.573c5.758,0,9.772-3.432,9.772-6.515s-4.013-6.515-9.772-6.515a6.515,6.515,0,0,1-6.515-6.515C241.364,68.955,237.351,65.523,231.592,65.523Z" transform="translate(-31.301 -13.409)" fill="#6abeff"/>
    <path id="Path_116" data-name="Path 116" d="M579.16,93.63H527.044a19.544,19.544,0,1,1,0-39.087h.826a26.06,26.06,0,0,1,50.464,0h.826a19.544,19.544,0,1,1,0,39.087ZM527.044,67.572a6.515,6.515,0,0,0,0,13.029H579.16a6.515,6.515,0,1,0,0-13.029h-6.515a6.515,6.515,0,0,1-6.514-6.515,13.029,13.029,0,1,0-26.058,0,6.514,6.514,0,0,1-6.515,6.515Z" transform="translate(-111.777 -8.944)" fill="#6abeff"/>
  </g>
</svg>
