<svg xmlns="http://www.w3.org/2000/svg" width="247.408" height="247.419" viewBox="0 0 247.408 247.419">
  <g id="link" transform="translate(-223.887 -154.721)">
    <path id="Path_86" data-name="Path 86" d="M327.15,342.59l-17.215,17.23a30.92,30.92,0,0,1-43.727-43.727l49.672-49.707a30.939,30.939,0,0,1,43.73,0,30.547,30.547,0,0,1,7.773,13.539l24.254-24.277a70.187,70.187,0,0,0-9.375-11.922c-22.848-22.832-56.438-26.293-75.023-7.711l-71.4,71.434c-18.574,18.586-15.125,52.164,7.707,75.012,22.855,22.848,56.438,26.309,75.023,7.711l40.57-40.578a83.975,83.975,0,0,1-31.992-7Z" fill="#ffcd52"/>
    <path id="Path_87" data-name="Path 87" d="M368.03,214.26l17.207-17.207a30.914,30.914,0,1,1,43.727,43.711l-49.668,49.7a30.9,30.9,0,0,1-43.73,0,30.546,30.546,0,0,1-7.777-13.551L303.531,301.2a70.585,70.585,0,0,0,9.391,11.93c22.836,22.844,56.426,26.281,75.023,7.7l71.391-71.422c18.586-18.582,15.125-52.176-7.711-75.012-22.844-22.855-56.426-26.293-75.012-7.711l-40.57,40.566a84.8,84.8,0,0,1,31.988,7.008Z" fill="#ffcd52"/>
  </g>
</svg>
