<svg xmlns="http://www.w3.org/2000/svg">
  <g id="Group_42" data-name="Group 42" transform="translate(163.79 -2278.655)">
    <g id="Group_17" data-name="Group 17" transform="translate(-85.579 2586.698)">
      <path id="Path_1" data-name="Path 1" d="M986.3,613.052,900.059,448.4V395.423c0-218.378-177.038-395.43-395.43-395.43S109.2,177.032,109.2,395.4c0,113.7,48.052,216.111,124.871,288.247V1040.6H702.343V915.727h114.47a83.494,83.494,0,0,0,83.25-83.25V686.8h41.621c45.788,0,65.857-33.186,44.62-73.749ZM785.593,499.49a31.22,31.22,0,1,1,31.22-31.22A31.233,31.233,0,0,1,785.593,499.49Z" transform="translate(-109.2 0.007)"/>
    </g>
    <path id="Path_11" data-name="Path 11" d="M869.5,3565v354.74H401.247s-13.866-192.391-12.133-208.856-25.132-136.06-10.4-151.659,126.527-43.331,126.527-43.331l364.258,26Z" transform="translate(-361.73 27.183)"/>
    <path id="Path_8" data-name="Path 8" d="M869.5,3565v354.74H401.247s-13.866-192.391-12.133-208.856-25.132-136.06-10.4-151.659,126.527-43.331,126.527-43.331l364.258,26Z" transform="translate(-440 15.689)" fill="#ff7253"/>
    <g id="Group_17-2" data-name="Group 17" transform="translate(-163.79 2532.396)">
      <path id="Path_1-2" data-name="Path 1" d="M986.3,613.052,900.059,448.4V395.423c0-218.378-177.038-395.43-395.43-395.43S109.2,177.032,109.2,395.4c0,113.7,48.052,216.111,124.871,288.247V1040.6H702.343V915.727h114.47a83.494,83.494,0,0,0,83.25-83.25V686.8h41.621c45.788,0,65.857-33.186,44.62-73.749ZM785.593,499.49a31.22,31.22,0,1,1,31.22-31.22A31.233,31.233,0,0,1,785.593,499.49Z" transform="translate(-109.2 0.007)" fill="#ff7253"/>
    </g>
  </g>
  <g id="cog" transform="translate(163.79 -2278.655)">
    <path id="Path_2" data-name="Path 2" d="M305.189,383.812H239.183a5.964,5.964,0,0,1-5.922-5.257l-7.177-60.124a127.386,127.386,0,0,1-34.32-19.852L136.07,322.444a5.961,5.961,0,0,1-7.514-2.5L95.551,262.777a5.964,5.964,0,0,1,1.591-7.758l48.5-36.291a127.029,127.029,0,0,1,0-39.642L97.142,142.8a5.961,5.961,0,0,1-1.591-7.758l33-57.167a5.958,5.958,0,0,1,7.514-2.5l55.695,23.865a127.391,127.391,0,0,1,34.32-19.852l7.177-60.124A5.967,5.967,0,0,1,239.184,14h66.008a5.964,5.964,0,0,1,5.922,5.257l7.177,60.124a127.386,127.386,0,0,1,34.32,19.852l55.695-23.865a5.972,5.972,0,0,1,7.514,2.5l33,57.167a5.964,5.964,0,0,1-1.591,7.758l-48.5,36.291a127.031,127.031,0,0,1,0,39.642l48.5,36.291a5.961,5.961,0,0,1,1.591,7.758l-33,57.167a5.969,5.969,0,0,1-7.514,2.5L352.61,298.576a127.39,127.39,0,0,1-34.32,19.852l-7.177,60.124a5.967,5.967,0,0,1-5.925,5.26Zm-60.71-11.928h55.415l6.981-58.492a5.959,5.959,0,0,1,3.937-4.918,115.6,115.6,0,0,0,36.91-21.346,5.95,5.95,0,0,1,6.229-.953l54.182,23.219L435.841,261.4l-47.18-35.305a5.963,5.963,0,0,1-2.292-5.863,115.547,115.547,0,0,0,0-42.651,5.953,5.953,0,0,1,2.292-5.862l47.182-35.3L408.137,88.422l-54.182,23.219a5.959,5.959,0,0,1-6.229-.953,115.623,115.623,0,0,0-36.91-21.346,5.959,5.959,0,0,1-3.937-4.918l-6.984-58.5H244.478L237.5,84.42a5.959,5.959,0,0,1-3.937,4.918,115.6,115.6,0,0,0-36.91,21.346,5.977,5.977,0,0,1-6.229.953L136.238,88.417l-27.707,48,47.182,35.3A5.963,5.963,0,0,1,158,177.579a115.47,115.47,0,0,0,0,42.651,5.953,5.953,0,0,1-2.292,5.862L108.531,261.4l27.707,47.994,54.182-23.219a5.969,5.969,0,0,1,6.229.953,115.623,115.623,0,0,0,36.91,21.346,5.959,5.959,0,0,1,3.937,4.918Z" transform="translate(-45.75 2633.378)" fill="#fff1d1"/>
    <path id="Path_3" data-name="Path 3" d="M324.5,312.65A58.155,58.155,0,1,1,382.65,254.5,58.218,58.218,0,0,1,324.5,312.65Zm0-104.382A46.227,46.227,0,1,0,370.722,254.5,46.279,46.279,0,0,0,324.5,208.269Z" transform="translate(-98.062 2577.789)" fill="#fff1d1"/>
  </g>
  <path id="Path_6" data-name="Path 6" d="M1500.978,552.639a276.591,276.591,0,0,0,11.426-78.471c0-80.307-33.924-153.443-88.76-206.265S1292.71,182.1,1208.7,182.262a313.39,313.39,0,0,0-100.714,16.666C1043.3,106.788,933.635,45.809,808.846,45.809c-95.429,0-182.437,35.818-246.764,93.8-55.193,49.811-93.847,116.125-108.093,190.773a311.705,311.705,0,0,0-43.584-3.161c-83.49,0-159.413,32.659-213.894,85.305-54.3,52.31-88.038,125.122-88.038,205.093,0,101.3,54.126,190.773,136.2,242.759-.172,3.835-.527,7.659-.527,11.668,0,63.143,19.861,122.959,58.172,168.447a211.312,211.312,0,0,0,71.181,54.821c28.124,13.168,60.108,20.489,94.559,20.489,13.008,0,25.66-1.836,38.139-4.161,14.761-3,28.994-6.834,41.13-10.495a291.573,291.573,0,0,0,22.141,32.659,221.055,221.055,0,0,0,50.093,46.812A177.582,177.582,0,0,0,696.9,1209.44a340.546,340.546,0,0,0,38.311,2.336,305.89,305.89,0,0,0,162.222-46.312,283.112,283.112,0,0,0,36.2-26.486c7.209,3.835,15.644,7.833,25.488,11.994,31.63,13.33,76.45,26.661,129.88,26.661a307.361,307.361,0,0,0,38.666-2.336c64.5-8,130.235-34.495,181.91-78.471,25.831-21.989,47.984-48.651,63.8-79.471a234.753,234.753,0,0,0,22.141-66.977c3.69.163,7.209.662,10.9.662,60.281,0,115.12-23.662,154.486-61.643,39.366-37.818,63.626-90.3,63.626-147.948,0-83.178-50.266-154.99-123.553-188.809Zm9.845,289.907A149.848,149.848,0,0,1,1406.6,884.2a146.532,146.532,0,0,1-33.924-4l-42.712-9.658-.7,41.653c-.527,28.323-7.209,53.322-18.806,75.808-17.225,33.5-45.693,61.48-79.8,82.306a286.2,286.2,0,0,1-111.784,38.818,226.923,226.923,0,0,1-29.705,1.836,261.509,261.509,0,0,1-101.411-20.989,247.118,247.118,0,0,1-28.994-14.33c-3.335-1.836-5.627-3.5-7.209-4.5l-1.582-1-.172-.163-27.069-19.49-21.271,24.987c-.527.5-16.526,18.49-45.166,35.655a233.023,233.023,0,0,1-120.917,33.655,226.111,226.111,0,0,1-29.521-1.836c-17.4-2-32.157-8.333-45.521-17.166-20.032-13.168-36.2-32.995-46.575-49.65a204.961,204.961,0,0,1-11.6-20.827c-1.226-2.5-2.109-4.5-2.636-5.834l-.527-1.336v-.163l-12.309-32.32-33.751,12.831-.527.163c-2.808,1-17.4,6.334-34.806,11.331a262.332,262.332,0,0,1-26.886,6.334,129.881,129.881,0,0,1-22.141,2.5c-24.25,0-44.993-5-63.444-13.493-27.413-12.831-49.739-34.495-65.554-62.816s-24.777-63.315-24.777-100.633a149.562,149.562,0,0,1,2.109-24.487l3.335-22.488L299.34,813.732C227.8,775.578,179.12,702.266,179.12,617.461c0-62.143,26.015-117.961,68.19-158.614,42.184-40.49,99.832-65.315,163.8-65.478a236.784,236.784,0,0,1,63.627,8.833l41.83,11.494,2.991-41.153c5.443-72.973,39.551-138.127,91.569-185.1s121.444-75.472,198.252-75.472c109.147,0,204.221,57.981,254.145,144.285l16,27.823,30.048-13.83a237.154,237.154,0,0,1,99.66-21.826c64.327,0,122.5,24.987,164.855,65.814s68.545,96.974,68.545,159.614a216.735,216.735,0,0,1-17.581,85.469l-14.589,34.155,37.257,10.332c61.335,16.991,107.038,71.813,106.856,137.291a141.334,141.334,0,0,1-43.754,101.449Z" transform="translate(806.44 -45.809)" fill="#5bbab4"/>
  <path id="Path_5" data-name="Path 5" d="M238.644,416.19a39.064,39.064,0,0,0-27.965,11.766,40.281,40.281,0,0,0,0,56.345,39.115,39.115,0,0,0,55.93,0,40.281,40.281,0,0,0,0-56.345,39.062,39.062,0,0,0-27.965-11.766ZM251.8,469.7a18.387,18.387,0,0,1-26.305,0,19.389,19.389,0,0,1,0-27.136,18.387,18.387,0,0,1,26.305,0,19.389,19.389,0,0,1,0,27.136Z" transform="translate(624.271 186.842)" fill="#5bbab4"/>
</svg>
