<svg xmlns="http://www.w3.org/2000/svg" width="324.755" height="412.289" viewBox="0 0 324.755 412.289">
  <g id="self-care" transform="translate(-127.31 -209.75)">
    <path id="Path_85" data-name="Path 85" d="M307.21,177.781c-3.872,6.43-12.121,10.42-21.528,10.42s-17.655-4-21.528-10.42a6.883,6.883,0,0,1,1.905-9.182,6.045,6.045,0,0,1,8.654,2.022c1.284,2.129,5.464,4.29,10.968,4.29s9.684-2.155,10.968-4.29A6.05,6.05,0,0,1,305.3,168.6a6.882,6.882,0,0,1,1.905,9.182Zm-74.2-42.733a6.08,6.08,0,0,0,8.593-2.321c.632-1.125,3.165-2.912,7.277-2.912s6.642,1.79,7.277,2.912a6.213,6.213,0,0,0,5.4,3.251,5.958,5.958,0,0,0,3.2-.932,6.887,6.887,0,0,0,2.188-9.117c-3.254-5.812-10.173-9.422-18.05-9.422s-14.8,3.61-18.05,9.422a6.865,6.865,0,0,0,2.171,9.12Zm73.62,0a6.079,6.079,0,0,0,8.593-2.321c.632-1.125,3.165-2.912,7.277-2.912s6.642,1.79,7.278,2.912a6.213,6.213,0,0,0,5.4,3.251,5.958,5.958,0,0,0,3.2-.932,6.886,6.886,0,0,0,2.188-9.117c-3.254-5.812-10.173-9.422-18.05-9.422s-14.8,3.61-18.05,9.422A6.865,6.865,0,0,0,306.63,135.048Zm-39.7,18.7a6.876,6.876,0,0,0-2.188-9.11,6.046,6.046,0,0,0-8.587,2.321c-.632,1.125-3.165,2.912-7.277,2.912s-6.642-1.79-7.277-2.912a6.057,6.057,0,0,0-8.587-2.321,6.88,6.88,0,0,0-2.188,9.11c3.254,5.812,10.173,9.422,18.05,9.422s14.8-3.61,18.055-9.422Zm73.62,0a6.876,6.876,0,0,0-2.188-9.11,6.045,6.045,0,0,0-8.587,2.321c-.632,1.125-3.165,2.912-7.277,2.912s-6.642-1.79-7.277-2.912a6.058,6.058,0,0,0-8.587-2.321,6.88,6.88,0,0,0-2.188,9.11c3.254,5.812,10.173,9.422,18.05,9.422s14.8-3.61,18.056-9.422ZM164.8,336.115V305.3l-14.158-6.285c-12.692-5.64-22.062-16.951-25.716-31.034a49.283,49.283,0,0,1,7.113-40.622l1.153-1.529a155.641,155.641,0,0,0,27.1-76.969l3.26-42.306C167.737,51.718,211.635,8.75,263.5,8.75h44.373c51.864,0,95.76,42.964,99.951,97.807l3.26,42.285a155.751,155.751,0,0,0,27.253,77.189l.853,1.125a49.39,49.39,0,0,1,7.258,40.83c-3.654,14.083-13.025,25.4-25.708,31.034l-14.147,6.27V336.1c0,12.688-9.726,23.006-21.684,23.006h-.764l-4.1,28.846a38.467,38.467,0,0,1-19,28.493,34.416,34.416,0,0,1-32.885.793l-42.431-21.391-42.462,21.4a34.5,34.5,0,0,1-32.964-.825,38.411,38.411,0,0,1-18.929-28.466l-4.135-28.834H186.5c-11.958.009-21.693-10.319-21.693-23.012Zm106.3,52.387-58.251-29.366H199.908l3.856,26.851a25.239,25.239,0,0,0,12.429,18.72,22.749,22.749,0,0,0,21.684.546Zm100.7-31.839L239.721,299.343a6.672,6.672,0,0,1-3.9-6.157l0-24.034a7.655,7.655,0,1,0-15.283,0v10.007a6.471,6.471,0,0,1-6.268,6.65H186.492c-5.05,0-9.158,4.361-9.158,9.716v1.7h12.009a6.661,6.661,0,0,1,0,13.3H177.334v10.6h12.009a6.661,6.661,0,0,1,0,13.3H177.334v1.7c0,5.358,4.11,9.716,9.158,9.716h27.778a5.957,5.957,0,0,1,2.689.644l116.562,58.757a22.614,22.614,0,0,0,21.623-.519,25.311,25.311,0,0,0,12.5-18.732ZM248.352,276.731v11.99l37.342,16.205L323.043,288.7V276.751c-8.349-2.945-14.152-5.014-14.152-5.014a6.632,6.632,0,0,1-4.275-6.305v-16.4a74.624,74.624,0,0,1-37.854-.012v16.411a6.632,6.632,0,0,1-4.287,6.311ZM354.807,164.8V138.9l-32.04-58.244c-51.57,0-85.983,31.339-106.2,58.716V164.83c.006,40.438,31.013,73.333,69.125,73.333S354.807,205.254,354.807,164.8Zm39.248,171.311v-1.689h-12.02a6.661,6.661,0,0,1,0-13.3h12.02v-10.6h-12.02a6.661,6.661,0,0,1,0-13.3h12.02v-1.674c0-5.352-4.1-9.707-9.149-9.707H357.076a6.471,6.471,0,0,1-6.267-6.65v-10.04a7.869,7.869,0,0,0-7.583-8.113,7.372,7.372,0,0,0-5.409,2.375,8.327,8.327,0,0,0-2.238,5.738v24a6.668,6.668,0,0,1-3.892,6.151L302.241,312.1l77.7,33.72H384.9c5.042,0,9.149-4.358,9.149-9.71ZM155.5,286.762l9.74,4.322c1.961-10.565,10.741-18.566,21.273-18.566h21.511v-3.366c0-11.8,9.052-21.407,20.176-21.407,9.108,0,16.74,6.483,19.236,15.294l6.807-2.408V244.759c-19.424-8.638-35.028-25.022-43.422-45.485-.182,0-.325.053-.515.053-17.9,0-32.465-15.455-32.465-34.445,0-17.82,12.86-32.352,29.231-34.1,31.276-42.1,73.47-64.662,119.505-63.371a6.209,6.209,0,0,1,5.252,3.3l33.081,60.132c16.094,2.028,28.663,16.425,28.663,34.041,0,18.99-14.566,34.445-32.465,34.445-.187,0-.333-.053-.52-.053-8.4,20.46-24,36.846-43.413,45.485v15.885c1.8.638,4.144,1.469,6.819,2.414a21.468,21.468,0,0,1,4.983-9.042,19.49,19.49,0,0,1,14.279-6.27c11.094,0,20.118,9.6,20.118,21.413v3.39H384.93c10.509,0,19.292,7.986,21.259,18.533l9.726-4.316a33.188,33.188,0,0,0,18.464-22.3,35.418,35.418,0,0,0-5.109-29.193l-.859-1.131A169.708,169.708,0,0,1,398.6,149.924l-3.26-42.279c-3.665-48-42.085-85.595-87.459-85.595H263.512c-45.378,0-83.8,37.592-87.459,85.587l-3.26,42.3a169.479,169.479,0,0,1-29.659,84l-1.153,1.535a35.344,35.344,0,0,0-4.964,28.991,33.209,33.209,0,0,0,18.481,22.3ZM364.866,185.626c9.188-1.882,16.159-10.453,16.159-20.742a21.023,21.023,0,0,0-13.677-19.976v19.9a90.991,90.991,0,0,1-2.482,20.821ZM204.038,164.831V144.909a21.023,21.023,0,0,0-13.677,19.976c0,10.286,6.964,18.859,16.15,20.742a91.246,91.246,0,0,1-2.473-20.795Z" transform="translate(4 201)" fill="#ee3d9b"/>
  </g>
</svg>
