<svg xmlns="http://www.w3.org/2000/svg" width="434.556" height="328.688" viewBox="0 0 434.556 328.688">
  <g id="volunteer" transform="translate(-78.464 -138.966)">
    <path id="Path_88" data-name="Path 88" d="M314.175,197.308h-1.958a22.807,22.807,0,0,0-17.687,8.407V166.692a14.333,14.333,0,0,0-18.345-13.8,14.764,14.764,0,0,0-29.481.013,14.431,14.431,0,0,0-18.37,11.9,14.954,14.954,0,0,0-4.628-.742,12.9,12.9,0,0,0-12.885,12.885v59.5c0,11.017.5,21.713,6.53,31.433h0a49.071,49.071,0,0,1,7.384,25.907v21.978h-5.114a5.238,5.238,0,0,0-5.239,5.239V349.9a5.24,5.24,0,0,0,5.239,5.239h.05V462.408a5.238,5.238,0,0,0,5.239,5.239h70.069a5.238,5.238,0,0,0,5.239-5.239V355.133h1.2a5.238,5.238,0,0,0,5.239-5.239V321a5.238,5.238,0,0,0-5.239-5.239h-5.117l.274-22.661.041-.125v0a25.267,25.267,0,0,1,12.3-14.353c6.969-3.723,10.5-9.861,10.5-18.236V202.541a5.242,5.242,0,0,0-5.239-5.239Zm-24.441,259.86H230.143V355.139h59.591Zm6.439-112.511H224.851V326.244h71.323Zm12.763-84.268c0,5.576-2.386,7.618-4.964,8.994v0a35.688,35.688,0,0,0-17.316,20.338l-.041.122a15.873,15.873,0,0,0-.792,4.977v20.942H235.207V293.787a59.554,59.554,0,0,0-8.959-31.433c-4.581-7.387-4.955-16.1-4.955-25.907v-59.5a2.413,2.413,0,0,1,2.407-2.407,4.482,4.482,0,0,1,4.478,4.478v37.67a5.239,5.239,0,0,0,10.478,0V166.8a4,4,0,1,1,8,0v49.887a5.239,5.239,0,0,0,10.478,0V153.743a4.307,4.307,0,0,1,8.613,0v62.944a5.239,5.239,0,1,0,10.478,0v-49.35a5.039,5.039,0,0,0,.044-.649,3.89,3.89,0,1,1,7.78,0v69.171a10.416,10.416,0,0,0,10.4,10.4,5.241,5.241,0,0,0,5.239-5.2l.181-20.939a12.371,12.371,0,0,1,9.062-11.9Z" transform="translate(-26.697 0)" fill="#b674e6"/>
    <path id="Path_89" data-name="Path 89" d="M588.851,344.449c6.031-9.72,6.53-20.412,6.53-31.433l0-59.5a12.9,12.9,0,0,0-12.885-12.885,14.973,14.973,0,0,0-4.631.742,14.431,14.431,0,0,0-18.37-11.9,14.764,14.764,0,0,0-29.481-.013,14.333,14.333,0,0,0-18.345,13.8v39.029a22.793,22.793,0,0,0-17.684-8.413h-1.958a5.24,5.24,0,0,0-5.239,5.239v57.848c0,8.376,3.533,14.513,10.5,18.236v0a25.261,25.261,0,0,1,12.3,14.351l.041.125.274,8.688h-5.117v0a5.238,5.238,0,0,0-5.239,5.239V412.5a5.238,5.238,0,0,0,5.239,5.239h1.2v60.121a5.238,5.238,0,0,0,5.239,5.239h70.069a5.238,5.238,0,0,0,5.239-5.239V417.737h.05a5.238,5.238,0,0,0,5.239-5.239V383.608a5.238,5.238,0,0,0-5.239-5.239h-5.114v-8.008a49.114,49.114,0,0,1,7.381-25.91ZM576.057,472.615H516.462V417.732h59.594Zm5.289-65.36H510.023V388.841h71.323Zm-1.4-68.332a59.581,59.581,0,0,0-8.956,31.433v8.008H520.376V371.39a15.873,15.873,0,0,0-.792-4.977l-.041-.125a35.711,35.711,0,0,0-17.319-20.335c-2.579-1.378-4.964-3.421-4.964-8.994V284.79a12.393,12.393,0,0,1,9.062,11.946l.181,20.9a5.241,5.241,0,0,0,5.239,5.2,10.416,10.416,0,0,0,10.4-10.4V243.254a3.891,3.891,0,1,1,7.78,0,5.082,5.082,0,0,0,.044.652v49.347a5.239,5.239,0,1,0,10.478,0V230.309a4.307,4.307,0,0,1,8.613,0v62.944a5.239,5.239,0,1,0,10.478,0V243.366a4,4,0,1,1,8,0v49.887a5.239,5.239,0,1,0,10.478,0v-37.67a4.482,4.482,0,0,1,4.478-4.478,2.413,2.413,0,0,1,2.407,2.407v59.5c0,9.8-.377,18.52-4.958,25.907Z" transform="translate(-82.361 -15.446)" fill="#b674e6"/>
    <path id="Path_90" data-name="Path 90" d="M451.031,311.639c6.031-9.72,6.53-20.412,6.53-31.433l0-59.5a12.9,12.9,0,0,0-12.885-12.885,14.974,14.974,0,0,0-4.631.742,14.431,14.431,0,0,0-18.37-11.9,14.764,14.764,0,0,0-29.481-.013,14.333,14.333,0,0,0-18.345,13.8v39.029a22.793,22.793,0,0,0-17.684-8.413H354.2a5.24,5.24,0,0,0-5.239,5.239v57.848c0,8.376,3.533,14.513,10.5,18.236v0a25.261,25.261,0,0,1,12.3,14.351l.041.125.274,40.121h-5.117v0a5.238,5.238,0,0,0-5.239,5.239v46.354a5.238,5.238,0,0,0,5.239,5.239h1.2v37.42a5.238,5.238,0,0,0,5.239,5.239h70.069a5.238,5.238,0,0,0,5.239-5.239v-37.42h.05A5.238,5.238,0,0,0,454,428.584V382.23a5.238,5.238,0,0,0-5.239-5.239h-5.114V355.014c0-26.453,2.591-35.652,7.381-43.373ZM438.236,466H378.642V433.824h59.594Zm5.289-42.659H372.2V387.469h71.323Zm-1.4-117.229c-5.809,9.364-8.959,19.933-8.959,48.9v21.978H382.556V338.584a15.872,15.872,0,0,0-.792-4.977l-.041-.125A35.711,35.711,0,0,0,364.4,313.148c-2.579-1.378-4.964-3.421-4.964-8.994v-52.17A12.393,12.393,0,0,1,368.5,263.93l.181,20.9a5.241,5.241,0,0,0,5.239,5.2,10.416,10.416,0,0,0,10.4-10.4V210.448a3.891,3.891,0,1,1,7.78,0,5.082,5.082,0,0,0,.044.652v49.347a5.239,5.239,0,1,0,10.478,0V197.5a4.307,4.307,0,0,1,8.613,0v62.944a5.239,5.239,0,0,0,10.478,0V210.561a4,4,0,1,1,8,0v49.887a5.239,5.239,0,0,0,10.478,0v-37.67a4.482,4.482,0,0,1,4.478-4.478,2.413,2.413,0,0,1,2.407,2.407v59.5c0,9.8-.377,18.52-4.958,25.907Z" transform="translate(-54.562 -8.828)" fill="#b674e6"/>
    <path id="Path_91" data-name="Path 91" d="M181.824,273.878h-1.958a22.808,22.808,0,0,0-17.687,8.407V243.262a14.333,14.333,0,0,0-18.345-13.8,14.764,14.764,0,0,0-29.481.013,14.435,14.435,0,0,0-18.373,11.9,14.954,14.954,0,0,0-4.628-.742,12.9,12.9,0,0,0-12.888,12.885v59.5c0,11.017.5,21.713,6.53,31.433a49.071,49.071,0,0,1,7.384,25.907V409.8H87.26a5.24,5.24,0,0,0-5.239,5.239v28.894a5.242,5.242,0,0,0,5.239,5.239h.05l0,28.686a5.238,5.238,0,0,0,5.239,5.239h70.069a5.238,5.238,0,0,0,5.239-5.239V449.171h1.2a5.238,5.238,0,0,0,5.239-5.239V415.041a5.238,5.238,0,0,0-5.239-5.239h-5.117l.274-40.124.041-.125v0a25.267,25.267,0,0,1,12.3-14.353c6.969-3.723,10.5-9.861,10.5-18.236V279.115a5.242,5.242,0,0,0-5.239-5.239ZM157.382,472.621H97.791v-23.45h59.591Zm6.439-33.927H92.5V420.281h71.323Zm12.763-101.726c0,5.576-2.386,7.618-4.964,8.994v0A35.688,35.688,0,0,0,154.3,366.3l-.041.122a15.872,15.872,0,0,0-.792,4.977v38.405H102.855v-39.44A59.554,59.554,0,0,0,93.9,338.933c-4.581-7.387-4.955-16.1-4.955-25.907v-59.5a2.413,2.413,0,0,1,2.407-2.407,4.482,4.482,0,0,1,4.478,4.478v37.67a5.239,5.239,0,0,0,10.478,0V243.378a4,4,0,1,1,8,0v49.887a5.239,5.239,0,1,0,10.478,0V230.321a4.307,4.307,0,0,1,8.613,0v62.944a5.239,5.239,0,0,0,10.478,0v-49.35a5.034,5.034,0,0,0,.044-.649,3.89,3.89,0,1,1,7.78,0v69.171a10.416,10.416,0,0,0,10.4,10.4,5.241,5.241,0,0,0,5.239-5.2l.181-20.939a12.371,12.371,0,0,1,9.062-11.9Z" transform="translate(0 -15.445)" fill="#b674e6"/>
  </g>
</svg>
